<svg xmlns="http://www.w3.org/2000/svg" id="Camada_2" data-name="Camada 2" viewBox="0 0 1024 390">
  <defs>
    <style>
      .cls-1{fill:#fff;}
    </style>
  </defs>
  <path d="M135.5 87.5l24-12 19 6 14-6h9l11 20-19-10 3 17-35-5-26-10zM3 26l68.5 28.5 41 21-11-19v-13l29-6s70-5 80 6l19 16 25-11 41-5 23-13 68 4-17 9 27 13 22-8 29 5 84-10 45-18 37 12 30-12 18 12-15 10 15 9 38-9 22 10 60-1-6-13 43-6 44 10 40-4 57-9 12 9 19-18h36L1057-4-110-18z"/>
  <path d="M0 21l68.5 28.5 41 21-11-19v-13l29-6s70-5 80 6l19 16 25-11 41-5 23-13 68 4-17 9 27 13 22-8 29 5 84-10 45-18 37 12 30-12 18 12-15 10 15 9 38-9 22 10 60-1-6-13 43-6 44 10 40-4 57-9 12 9 19-18h36L1054-9-113-23z" class="cls-1"/>
  <path d="M0 10l61 22 111-17 60 17h50l20-11 83-11 43 29 61-8 101-21s93 8 96 9l3 1 26 19 119-15 62 7 32-13 96-8 14-10L-82-16c6 0 82 26 82 26z"/>
  <path d="M131.5 82.5l24-12 19 6 14-6h9l11 20-19-10 3 17-35-5-26-10z" class="cls-1"/>
</svg>
