<svg id="Camada_2" xmlns="http://www.w3.org/2000/svg" viewBox="0 0 1024 390">
  <style>
    .st0 { fill: #FFFFFF; } .st1 { fill: #010000; } .st2 { fill: #C9151E; }
  </style>
  <path d="M17.5-5.5l15 9 8.2 12.2 1.8 2.8 6 6v-7l-3-3s2 0-2-5 9 5 9 5v5l10 5s8 13 7 16-4 10-4 10l13 12s23 14 22 8 13 24 13 24l12 12 11 5 14 11-18-4-1 4 16 10 3 10 9 13 7 15 15 15 3-9-6-4 11 2v7l4 8 11 7h21s15 15 13 20 0 14 0 14l-9-20-3 8 6 12 12 12 18-6 16 12 18 20h21l5 8h14s36 14 43 8l4 7 24 4 6 11 66-4v11h25l-1-13 5 7 1 6 16 5 26 10 29-4 22 17 33 6 27 9 25-4s11 12 18 11 33 0 33 0l15-8 20 12 19-15s104 22 120 5l16-9 12-20 6 16 34-8 12-18v-16l-11-8 11-20 14-12 6-20-6-13 11-27-6.9-18.9s-5.1-6.1-7.1-9.1-1.5-34.7-1.5-34.7-8.5-42.3-13.5-37.3c0 0-9-11-5-19s-5-21-5-21l-9-18 2.9-30.3s-10.9-14.7-12.9-1.7l-2-18 11-25 75.2-1.8 25.8 452.8-284 28-817-28-49-152 53-228 13-93 32 47z"/>
  <title>
    HeaderBackground
  </title>
  <path d="M588.5 311.5l27-7 8-6 10 3-3 5s13 5 18-1l22 10 5 5h7l-9 5-10-7-6 4 6 8-13 2-10-3-5-10-9-4-12 10-6-4-7-6-13-4zM160.5 130.5l23 7 5 10-8-5-6 3v-6l-8-2"/>
  <path class="st0" d="M16.5-.5l15 9 8.2 12.2 1.8 2.8 6 6v-7l-3-3s2 0-2-5 9 5 9 5v5l10 5s8 13 7 16-4 10-4 10l13 12s23 14 22 8 13 24 13 24l12 12 11 5 14 11-18-4-1 4 16 10 3 10 9 13 7 15 15 15 3-9-6-4 11 2v7l4 8 11 7h21s15 15 13 20 0 14 0 14l-9-20-3 8 6 12 12 12 18-6 16 12 18 20h21l5 8h14s36 14 43 8l4 7 24 4 6 11 66-4v11h25l-1-13 5 7 1 6 16 5 26 10 29-4 22 17 33 6 27 9 25-4s11 12 18 11 33 0 33 0l15-8 20 12 19-15s104 22 120 5l16-9 12-20 6 16 34-8 12-18v-16l-11-8 11-20 14-12 6-20-6-13 11-27-6.9-18.9s-5.1-6.1-7.1-9.1-1.5-34.7-1.5-34.7-8.5-42.3-13.5-37.3c0 0-9-11-5-19s-5-21-5-21l-9-18 2.9-30.3s-10.9-14.7-12.9-1.7l-2-18 11-25 75.2-1.8 25.8 452.8-284 28-817-28-49-152 53-228 13-93 32 47z"/>
  <path d="M963.5-3.5l16 46v15l8 27 11 21v26l6 32 6 14-3 38 3 11 4 7v15l-4 20-9 70-17 7-41 29-19-4-14 2-4-2-65 4-20-3-35-1-13 8-29-6-37 2-23-7-26 1-56-18-16-4-9 2-51-19-36-4-23 2-64-10-12-14-27-7-32-8-28-7-24-1-18-19-27-9-10-20-10-11-13-8-34-26-13-19-18-27-21-6-21-45-30-22-28-36-9-20-41-19-10 411 1121 11-35-449z"/>
  <path class="st0" d="M158.5 132.5l23 7 5 10-8-5-6 3v-6l-8-2zM586.5 315.5l27-7 8-6 10 3-3 5s13 5 18-1l22 10 5 5h7l-9 5-10-7-6 4 6 8-13 2-10-3-5-10-9-4-12 10-6-4-7-6-13-4z"/>
  <path class="st1" d="M921.2 322.5L609 262.2l33.2-211.9 298.6 46z"/>
  <path class="st2" d="M910.6 314.2l-312.1-60.3L631.6 42l298.6 46z"/>
</svg>
