<svg id="Camada_1" data-name="Camada 1" xmlns="http://www.w3.org/2000/svg" viewBox="0 0 336.86 233.9"><defs><style>.cls-1{fill:#010000;}.cls-2{fill:#C9151E;}.cls-3,.cls-4{fill:#fff;}.cls-4{stroke:#000;stroke-miterlimit:10;stroke-width:0.92px;}</style></defs><title>logo</title><path class="cls-1" d="M270.3,78.67c-2.25-18.5-23.51-18.84-26.8-18.84s-19.88,1.38-19.88,1.38a41.28,41.28,0,0,1,7.26-2.06c-1.72.1-9.39.65-13.83,3.09-5,2.77-7.26-22.65-4.67-34.58s2.94-12.79,2.94-12.79,2.77-5.53-.86-6.05c0,0-29.91-3.8-57.22,6.4S116.13,37,113.15,49.28c0,0-.43,3.89.26,3.89s17.46,1.73,36.82,35.27c0,0-.35,0-1.73-1.38a8.76,8.76,0,0,0,2.77,4.49c2.25,1.9,2.16,8.38,2.16,8.38s-31.12,9.68-30.25,20.57,16.77,15.91,19.54,16.94,9.51,1.38,9.51,1.38,2.42-.52,2.42,1.38,5,5.88,7.78,7.26,9,4.32,11.58,4,2.25-.69,2.07-2.77,0-4.67,3.46-4.67,11.93,1.56,15,3.46,7.43.52,9.16-.69S224.83,131.4,230,122.23c0,0,19.54-6.05,30.25-19.88,0,0,0,1.38-4.15,6.05C256.12,108.4,272.55,97.17,270.3,78.67Zm-100,63.19s-1.21-.17-1,.52,1,1.21-1.73,1.21-8.64-5.36-9-6.05a1.45,1.45,0,0,0-1.9-.69,1.24,1.24,0,0,1-1.21,0,.77.77,0,0,1,.35-.86c.52-.35,3.8-.35,5.88-.17a11.1,11.1,0,0,1,7.78,3.28C172,141.86,170.29,141.86,170.29,141.86Z" transform="translate(-8.22 -8.13)"/><path class="cls-1" d="M230.88,59.15l.35,0Z" transform="translate(-8.22 -8.13)"/><path class="cls-2" d="M210.14,9.17s-22,2.59-40.45,16.08-18.84,14.7-19.88,15.56S138.91,51,128.19,52.22s-10.89-1-11.58-2.42.52-16.08,26.11-27.49S194.75,6.75,210.14,9.17Z" transform="translate(-8.22 -8.13)"/><path class="cls-2" d="M200.63,64.49s-4.15-8.64-5.19-16.94-3.28-18-3.28-18a5.7,5.7,0,0,1,1.56,2.77c.52,1.9-2.25-11.24-1.56-14.7s1.73,3.63,1.73,3.63S198,46.86,199.94,50a2.7,2.7,0,0,1,0,1.73c-.35.69,1.21,8.82,2.07,10.2S202.87,64.66,200.63,64.49Z" transform="translate(-8.22 -8.13)"/><path class="cls-2" d="M178,23.17s-.17-1.38.69-1.9,3.8-2.07,3.8-2.07a1.2,1.2,0,0,1,1.38,1c.17,1.21,8.3,38.38,14,46.85,0,0-4.15,3.11-4.32,4.15A97.65,97.65,0,0,1,178,23.17Z" transform="translate(-8.22 -8.13)"/><path class="cls-2" d="M192.67,72.27s-11.06-14.35-17.46-46.33c0,0-.17-2.59-1.9-1.56s-20.05,10.89-23,16.6c-1.59,3.09.52,1.73,2.07,4.15s6.4,9.68,6.57,11.06l-2.59.17s-1.73-2.25-2.42-3.28-2.77-3.11-.69.69A48.86,48.86,0,0,0,156.37,59s-.35,2.77,4.15,6.22l7.78,11.93-6.4-12.62,1.38-1.21s9.68,18.5,11.41,20.05,2.77,1.73,5,.52S191.12,75.38,192.67,72.27Z" transform="translate(-8.22 -8.13)"/><path class="cls-2" d="M188.53,19.19s2.94,20.4,5,27.66,2.59,8.64,2.59,8.64" transform="translate(-8.22 -8.13)"/><path class="cls-2" d="M199.59,65.35s0,1.21-1.73-4.32" transform="translate(-8.22 -8.13)"/><path class="cls-2" d="M160.86,93s-4.67-.35,0-.86,14-2.42,19.36-7.09a200.34,200.34,0,0,1,18.5-13.83c2.42-1.38,3.11-1.56,1.73,0s0,.69,0,.69,1.56-.52.69.86S188.35,89,185.59,97s-11.06,17.29-11.06,17.29a6.08,6.08,0,0,0-2-2.68c-1.73-1.56-1.56-2.77-1.73-4.49A14.58,14.58,0,0,0,168,101.4c-.52-.35-2.94-6.57-2.94-7.26S160.86,93,160.86,93Z" transform="translate(-8.22 -8.13)"/><path class="cls-2" d="M238.14,61s-10.46.09-22.47,7.26c-12.4,7.4-18.67,14.52-21.44,19s-1.73,4.15-2.25,5.53-3.11,7.61-4.49,9.16-5,9.16-5.36,10-9.16,15.21-15.56,18.33-10.72,4.84-19,4.67A16.72,16.72,0,0,1,135.62,133c-6.22-3.63-13.48-7.61-8.64-16.42s24.29-11.15,29-9.42a13.28,13.28,0,0,0,6.22,10c5.88,3.46,5.36,3.8,5.36,3.8s2.77,0,3.63-1.21a5.64,5.64,0,0,1-1.38,1.9s1-.59,2.06-1.29A8.55,8.55,0,0,0,173.4,119a3.32,3.32,0,0,1-1.21,1.73s4.49-4.15,6.57-8.13,3.28-5.36,2.94-9,3.43-5.45,3.43-5.45,7.8-16.67,19.39-25.15,20.4-10.2,20.4-10.2S228.89,61.29,238.14,61Z" transform="translate(-8.22 -8.13)"/><path class="cls-2" d="M172.88,147.22s1.38-4.32,4.84-4.15,8.13.35,12.45,2.07a18.47,18.47,0,0,0,10.89.52c2.07-.52,10.82-6.05,21.26-18.33,8.9-10.46,15-18.67,23.69-46a34.46,34.46,0,0,0,1.38-7.26s-29.91,2.25-44.78,17.29-22.13,23.69-25.93,31.46a46.89,46.89,0,0,1-5.36,9.34s6.4,6.05,3.46,10.72S172.88,147.22,172.88,147.22Z" transform="translate(-8.22 -8.13)"/><path d="M183.25,138.4a7.94,7.94,0,0,1-1.56-6.57,20.22,20.22,0,0,1,3.28-7.26,5,5,0,0,0,1-2.94c-.17-.86-1.21-.52-1.21-.52a3.77,3.77,0,0,0-2.07,1.21,7.46,7.46,0,0,1,.17-5,15.43,15.43,0,0,1,3.28-5.53c.69-.69,1.73-4.67,2.42-6.57s4.32-8.13,6.92-9.51a8.62,8.62,0,0,1,2.07-.52s-2.42,4.84-2.25,7.78a3.85,3.85,0,0,0,4.15,3.63,8.66,8.66,0,0,0,5.53-4,12.65,12.65,0,0,0,.86-5.88s-.17-6.92.52-9.16S208.49,82,213.85,80s13-7.61,14.7-9.68,2.94-4.84,2.59-5.19,1.21.35.69,3.46-3.28,7.09-6.22,8.47-4.67,6.05-4.84,7.26a25.27,25.27,0,0,0,.52,6.4c.35.86,1.21,2.59,2.42,3.11a3.45,3.45,0,0,0,2.59.17c.35-.17,1.21-.69,1.38-3.11a13.06,13.06,0,0,1,2.77-6.74c1.38-1.73,4-4.49,12.1-4.84a9.21,9.21,0,0,0-6.4,4.49c-2.59,4.15,0,6.05,0,6.05s2.25,1.56,6.05-1.21S252.75,80,253.79,78.06s2.94-8,9.34-10.72,14-2.59,16.77-1.21a14.36,14.36,0,0,0-8,.86,29,29,0,0,0-7.09,4c-2.94,2.42-6.57,5.36-8.47,12.45s-6.22,14.87-12.45,15.39-8.3-2.94-8.3-2.94a15.86,15.86,0,0,0-7.78,1.9c-3.46,2.07-4,3.63-4.15,4.49,0,0-3.8,2.25-3.28,4.49s3.63,2.07,4.49,1.9a8.51,8.51,0,0,0,4.49-3.46c1-1.9-5.19,12.79-13,14.7s-9.68,3.28-10.37,4.67-.35,2.07.86,2.25a14.66,14.66,0,0,0,8.64-1.73c3.8-2.07,4.15-3.63,7.09-4.15,0,0-3.28,1.21-6.4,6.92s-7.43,5.71-10.55,6.05c0,0-5,2.59-7.26,1.56a5.81,5.81,0,0,1-2.94-2.77S186.88,132.17,183.25,138.4Z" transform="translate(-8.22 -8.13)"/><path class="cls-3" d="M183.34,136.93s-3.46-5.53,1.9-11.93.35-5.88,0-5.71c-1.59.8-1.56,1.56-1.56,1.56s-.52-4.49,2.25-6.22,3.11-5.53,3.28-7.43,4.32-10.72,7.61-11.58c0,0-3.8,5.53-2.42,9.16a4.47,4.47,0,0,0,5.71,2.94,10,10,0,0,0,6.57-9c.17-2.94,0-8,0-8S206.31,84,212,81.43c9.34-4.15,18.84-10.72,19.36-15.39,0,0,.69,6.4-5.19,9.34-4.13,2.06-4.51,5.35-5.36,7.33a4.18,4.18,0,0,0-.17.45c-.52,1.73-.51,9.59,2.51,10.81,4.93,2,4.67-1.73,4.67-1.73s0-7.09,4.84-9.34l4.84-2.25s-6.57,6.05-2.59,9.16,10.55-3.28,10.55-3.28S254,80.65,256.9,73.74,271.42,65.27,273,66c0,0-11.15,3.54-15.73,12.1-2.78,5.18-3.2,7.17-3.63,9.51a15,15,0,0,1-6.92,8.64c-4.32,2.42-10.07,1-10.63-1.3-.17-.69-15.21,1.38-13.4,7.35,0,0-8.69,7.43,2.94,7.43.35,0-2.77,7.78-11.76,10.2s-9.51,5.19-9.34,6.4,2.77,3.46,11.24-.17c0,0-3.46,5.88-6.22,6.4s-1.38-1.21-1.38-1.21-3.28,3.46-6.57,3.63-5.71-1.38-5.71-3.11L189,133C186,133.56,183.34,136.93,183.34,136.93Z" transform="translate(-8.22 -8.13)"/><path class="cls-4" d="M242.46,68.81s-.86,2.94-2.25,2.77S238,70.89,238,69.16A3.55,3.55,0,0,1,239.7,66c.52-.17,1-2.77,1.73-2.94,0,0-.52,1.56,0,1.56s1.9-1.73,2.25-2.25A12.07,12.07,0,0,1,249,59.48c2.42-.52,8.82-2.25,12.1-5.71,0,0-2.07,4.49-4.15,5.19s-5.36,2.07-6.57,4-1,5.36-4.67,5.71S242.46,68.81,242.46,68.81Z" transform="translate(-8.22 -8.13)"/><path class="cls-3" d="M29.87,191.09,8.22,189.91l1.54-28.46,21.65,1.18ZM26.7,174.48l.21-3.48L13,170.24l-.17,3.48,5.33.29-.81,14.73,3.48.17.76-14.7Z" transform="translate(-8.22 -8.13)"/><path class="cls-3" d="M55.48,171l-5.21,19.9-18.58-4.84,5.22-19.94Zm-6.58,17L47,172.07l-6.75-1.8-.53,2.12,3.62,1-8.13,11L37,185.67l2.79-3.77,6.4,1.64.61,4.75Zm-3-6.74L41.11,180l4-5.38Z" transform="translate(-8.22 -8.13)"/><path class="cls-3" d="M70.7,204.43,52,196.33l9.51-22,18.42,8Zm-.17-3.68.7-1.76-3.3-1.41a2,2,0,0,1-1.12-1.26,4.2,4.2,0,0,1-.16-2A17.1,17.1,0,0,1,67.2,192a18.08,18.08,0,0,0,.57-2.53,3.65,3.65,0,0,0-.27-2.37,3.07,3.07,0,0,0-1.66-1.27l-.53-.19L73,183l-.69-1.93L63.76,184l2.15-5.06-3.29-1.45-.83,1.86,1.72.74-5.29,12.21,1.79.78,2.76-6.42,1.76.74a2.25,2.25,0,0,1,1.08.87,2.47,2.47,0,0,1,.16,1.59,14.66,14.66,0,0,1-.58,2.47,13.3,13.3,0,0,0-.54,2.18,5.23,5.23,0,0,0,.28,3.17,4.26,4.26,0,0,0,2.24,1.78Z" transform="translate(-8.22 -8.13)"/><path d="M100.86,181l-4.46,22.17-17.87-3.58,4.39-22.18Zm-3.59,2.61-12.61-2.51-.45,2.32,2.13.46L83.42,198.3l10.83,2.18.49-2.35-8.48-1.72,1-5.19,7.86,1.59.49-2.35-7.86-1.59.92-4.53L96.82,186Z" transform="translate(-8.22 -8.13)"/><path d="M135.37,210.62l-19.3-2.93,3.08-19.84,19.31,2.89Zm-.87-16.54-1.12-1-5.88,6.3-3.39-7.43-2.47-.47-.22,1.5,1.68.25,3.41,7.55-1,6.27,1.42.21,1-6.2Z" transform="translate(-8.22 -8.13)"/><path d="M162.27,191.6l-5.33,22-19.85-4.83,5.29-21.94Zm-4.8,9.11a10.15,10.15,0,0,0-.05-3.48,8.3,8.3,0,0,0-1.15-2.89,6.87,6.87,0,0,0-2.12-2.1,7.51,7.51,0,0,0-3-1.07,7,7,0,0,0-3.17.25,7.63,7.63,0,0,0-2.74,1.56,9.36,9.36,0,0,0-2.07,2.66,10.87,10.87,0,0,0-1.14,3.56,11.29,11.29,0,0,0,0,3.53,8.11,8.11,0,0,0,1.09,3,7,7,0,0,0,2.15,2.18,7.65,7.65,0,0,0,3.12,1.13,6.52,6.52,0,0,0,3.12-.29,7.92,7.92,0,0,0,2.74-1.63,9.42,9.42,0,0,0,2.06-2.76A11.69,11.69,0,0,0,157.47,200.71Zm-2.42-.32a8.69,8.69,0,0,1-.69,2.3,7.5,7.5,0,0,1-1.37,2.08,6,6,0,0,1-2,1.41,4.85,4.85,0,0,1-4.54-.48,4.62,4.62,0,0,1-1.36-1.54,6.06,6.06,0,0,1-.68-2.11,8.76,8.76,0,0,1,0-2.46,8.51,8.51,0,0,1,.79-2.59,7.55,7.55,0,0,1,1.41-2,5.26,5.26,0,0,1,1.86-1.22,4.26,4.26,0,0,1,2.16-.23,5.07,5.07,0,0,1,2,.72,4.85,4.85,0,0,1,1.48,1.47,6.18,6.18,0,0,1,.85,2.08A7.14,7.14,0,0,1,155.06,200.4Z" transform="translate(-8.22 -8.13)"/><path class="cls-3" d="M162.7,216.54l.42-20.75,19.45.41L182.14,217Zm16.74-18.59-1.71-.06-.22,10.93a1.8,1.8,0,0,1,0,.35l-.05.35a4.8,4.8,0,0,1-.59,1.72,4.39,4.39,0,0,1-2.75,2.08,4.81,4.81,0,0,1-1.93.09,4.1,4.1,0,0,1-2.78-1.62,5,5,0,0,1-1-3.26l.24-10.82-3.35-.08-.06,1.71,1.71,0-.17,9.11a7.25,7.25,0,0,0,.31,2.34,6.26,6.26,0,0,0,1,2,6,6,0,0,0,1.63,1.47,5.64,5.64,0,0,0,2.16.76,6.34,6.34,0,0,0,2.52-.12,6.41,6.41,0,0,0,2.18-1,6.19,6.19,0,0,0,2.49-4.19l.06-.44a2.79,2.79,0,0,0,0-.44Z" transform="translate(-8.22 -8.13)"/><path d="M208.67,220l-21.93.49-.56-23.54,21.93-.5Zm-5.5-2,1.14,0h.8l.6,0,.6,0,0-1.5q-.6.06-1.24.08l-1.76,0h-.34l-.33,0a2.72,2.72,0,0,1-1.76-1,4.27,4.27,0,0,1-.86-2.25c-.05-.5-.09-1.05-.13-1.64a10.65,10.65,0,0,0-.25-1.71,6,6,0,0,0-.58-1.52,2.81,2.81,0,0,0-1.11-1.09,3.34,3.34,0,0,0,1.55-1.14,3.82,3.82,0,0,0,.7-1.74,3.54,3.54,0,0,0-.68-3,4.35,4.35,0,0,0-2.72-1.33c-.27,0-.54-.07-.81-.08s-.56,0-.86,0l-2.71.07-1.7,0-1.16,0-1.05.05,0,1.46,1.57,0,.32,13.44,1.46,0-.16-6.81,4-.09a2.83,2.83,0,0,1,.52,0,1.85,1.85,0,0,1,1.26.67,3.65,3.65,0,0,1,.63,1.32,8.65,8.65,0,0,1,.26,1.68,17.08,17.08,0,0,0,.19,1.74,5.81,5.81,0,0,0,1.27,3.08,4,4,0,0,0,2.49,1.35l.42,0Zm-6.59-16.48a2.57,2.57,0,0,1,1.61.85,2.26,2.26,0,0,1,.45,1.91q-.33,2.23-4,2.33l-1.11,0-.75,0h-1.14l-.08-5.08,2.55-.13A12,12,0,0,1,196.59,201.53Z" transform="translate(-8.22 -8.13)"/><path d="M250.17,197.56l-1,25-21.44-.78.89-25Zm-3.89,3.65-2.41-.09-.17,6.28-7-.23.21-6.31-4.13-.08-.16,2.4,1.75,0-.48,13.28,2.39.2.26-7.16,6.94.27-.26,7.12,2.49.07Z" transform="translate(-8.22 -8.13)"/><path class="cls-3" d="M272.34,204.82l-5.15,19.95-16.07-4.13,5.07-20ZM269,207l-11.36-2.89-.53,2.09,1.94.54-3.38,12.93,9.74,2.54.57-2.12-7.61-2,1.17-4.68,7.11,1.86.53-2.12-7-1.85,1-4.06,7.3,1.88Z" transform="translate(-8.22 -8.13)"/><path class="cls-3" d="M295.37,208.29l-3.3,22.64L271,227.86l3.31-22.68Zm-5.14,19.62-4.1-17.42-7.67-1.12-.35,2.41,4.16.61-7.63,13.17,2.09,1.24,2.6-4.54,7.3,1.07,1.26,5.14Z" transform="translate(-8.22 -8.13)"/><path class="cls-3" d="M319.44,235.53l-23.25-6.79,7.25-24.9,23.25,6.79Zm-5-3.11,1.27.37.9.24.68.17.67.17.47-1.68-1.38-.35q-.74-.18-2-.55a3.46,3.46,0,0,1-2.15-1.6,4.51,4.51,0,0,1-.39-2.91q.09-.62.33-1.78t.47-2.21a5.44,5.44,0,0,0-.05-2.08,3.67,3.67,0,0,0-.9-1.64,3.8,3.8,0,0,0,2.71-1.19,5.06,5.06,0,0,0,1.26-2.78,3.7,3.7,0,0,0-.89-3.21,8,8,0,0,0-3.64-2l-7.45-2.13-.51,1.71,1.79.52-4.4,15.06,1.68.51,2.25-7.73,4.43,1.32a2.41,2.41,0,0,1,1.8,1.49,5.49,5.49,0,0,1,.13,2.44q-.11.77-.31,1.6t-.31,1.6a7,7,0,0,0,.51,4.29A4.62,4.62,0,0,0,314.49,232.42Zm.06-17.52q-.79,2.57-4,2.1a11.21,11.21,0,0,1-1.48-.33l-1.27-.37-.84-.25-.63-.18-.62-.2,1.68-5.65,2.91.78a13.89,13.89,0,0,1,2.41.86,4.65,4.65,0,0,1,1.57,1.14,2,2,0,0,1,.41,1.68,1.5,1.5,0,0,1,0,.22A1.29,1.29,0,0,0,314.55,214.9Z" transform="translate(-8.22 -8.13)"/><path d="M341.28,242l-17.11-2.91,3.8-22.49,17.11,2.91Zm-.48-15.36.47-2.73-11-1.87-.47,2.73,4.22.73-2,11.64,2.77.44,2-11.61Z" transform="translate(-8.22 -8.13)"/><polygon points="275.78 207.52 277.87 206.42 277.47 208.75 279.17 210.41 276.82 210.75 275.78 212.87 274.73 210.75 272.39 210.41 274.08 208.75 273.68 206.42 275.78 207.52"/></svg>
