<svg xmlns="http://www.w3.org/2000/svg" viewBox="0 0 705.6 352.9">
  <defs>
    <style>


      @-webkit-keyframes percent {
        0% {
          d: path("M260 323.7l-210 5v-40l210-12v47z");
        }
        33% {
          d: path("M273.5 322.7l-223.5 6v-40l223.5-13v47z");
        }
        66% {
          d: path("M256.5 323.7l-206.5 5v-40l206.5-12v47z");
        }
        100% {
          d: path("M260 323.7l-210 5v-40l210-12v47z");
        }
      }

      .cls-1 {
        fill: #fff;
      }
      .cls-2 {
        fill: #C9151E;
        -webkit-animation: percent 5s infinite linear;
      }
      .cls-3 {
        fill: #C9151E;
      }

    </style>
  </defs>
  <g id="Layer_2" data-name="Layer 2">
    <g id="Layer_1-2" data-name="Layer 1">
      <path
        class="cls-1"
        d="M396.4 121.2l-30.7 7-3.5-12.1-15.1 4.4L337 79.7l-23.1 67-7.9 1.4 1.5 7.9-57-.8-30 14-4-10-25 7.9-30.8 14 17.6 44.2 27.1-6.2 27.8-3.4 4-2.8 19.1-8.8.1.3 59.1-13.2 25.3-4.5-5.1-23.4 8.5 20 9.5-4.8 1 3.5 22.8-6.7 30.9-6.6-12-47.5z"/>
      <path d="M248.5 160.2l8 40-24 9-9-37 25-12z"/>
      <path
        class="cls-1"
        d="M251.7 192.8a3.7 3.7 0 0 1-2.2-2 8 8 0 0 1-2.2 4.2 11.6 11.6 0 0 1-5.5 3.1 7.1 7.1 0 0 1-3.6.3 5.9 5.9 0 0 1-2.6-1.3 7.6 7.6 0 0 1-1.8-2.2 14.3 14.3 0 0 1-1.1-2.6 9.6 9.6 0 0 1-.3-4.7 9.7 9.7 0 0 1 1.7-3.9 13.7 13.7 0 0 1 3.4-3.2 33.2 33.2 0 0 1 4.7-2.6 16.8 16.8 0 0 0-3.2-4.9 3 3 0 0 0-2.9-.6q-5.1 1.5-4 8.4l-3.2.4q-.8-5.3.7-8.3a8.5 8.5 0 0 1 5.5-4.3 6.2 6.2 0 0 1 2.5-.2 5.4 5.4 0 0 1 2.4 1 11 11 0 0 1 2.5 2.5 34.4 34.4 0 0 1 2.6 4.3l2.3 4.8q1.3 2.8 2.9 5.9c.7 1.4 1.5 2 2.3 2.1l1 4a5 5 0 0 1-1.9-.2z"/>
      <path
        d="M202.5 216.2l-22.6 7-15.2-41.1 26.7-13 11.1 47.1zM360.5 118.2l15 53-20.3 8-15.7-52 21-9zM255.5 164.4l1.6 7 3.2-.4 5.1 23.8 5.6-1-4.3-20.8q-.2-3.7 3.9-4.9a4.2 4.2 0 0 1 3.4.4q1.6.9 2.2 3.8L281 194l5.8-1.1-4.7-21.1q-1.5-6.6-5.1-9.3a8.8 8.8 0 0 0-8-1.5 10.1 10.1 0 0 0-3.3 1.7 9.5 9.5 0 0 0-2.5 2.7l-.6-2.3z"/>
      <path class="cls-2" d="M260 323.7l-210 5v-40l210-12v47z"/>
      <path
        class="cls-1"
        d="M127.3 261.8c8.7-15.4 7.8-32.1 7.8-32.1l-10-5c9-29-2-50-10-63s-39-38-72-21-42 50-43 79 23 50.5 23 50.5v71.5l653-6 15-106zm-16.3-5.1l15 5.1-20.6 1.2c3.5-3.7 5.6-6.3 5.6-6.3zm-43-87c26 2 26 38 26 38l-23-13-18 41 23 10c-21 15-42.3 1.9-45-21s11-57 37-55zm587 154l-618 15v-60l621-32z"/>
      <path class="cls-1" d="M149.4 219.4l6.4-.8 13.2 26-6.2.8-2.5-5.4-10 1.3-1.1 5.8-5.9.8zm1.8 17l7-.9-4.8-10.3z"/>
      <path
        d="M155.8 218.5l13.2 26-6.2.8-2.5-5.4-10 1.3-1.1 5.8-5.9.8 6.1-28.5 6.4-.8m-4.6 17.8l7-.9-4.8-10.3-2.1 11.2m7.4-23.2l-3.5.5-6.4.8-3.5.5-.7 3.4-6.1 28.5-1.5 6.9 7-.9 5.9-.8 3.6-.5.7-3.6.4-2.3 2.8-.4 1 2.1 1.6 3.3 3.6-.5 6.2-.8 7-.9-3.2-6.3-13.2-26-1.6-3.2z"/>
      <path class="cls-1" d="M180.5 222h.5l.7 5.4h-1.5q-3.2.4-4 2.6a8.1 8.1 0 0 0-.1 3.7l1.3 9.6-5.3.7-2.7-20 5-.7.5 3.5a11.2 11.2 0 0 1 1.8-3 5.8 5.8 0 0 1 3.7-1.7z"/>
      <path
        d="M181 222l.7 5.4h-1.5q-3.2.4-4 2.6a8.1 8.1 0 0 0-.1 3.7l1.3 9.6-5.3.7-2.7-20 5-.7.5 3.5a11.2 11.2 0 0 1 1.8-3 5.8 5.8 0 0 1 3.7-1.7h.7m4.3-5.4l-4.7.4h-.9a12.2 12.2 0 0 0-3.4.9l-2.5.3-5 .7-5 .7.7 5 2.6 20.1.7 5 5-.7 5.3-.7 5-.7-.7-5-1.3-9.6v-.7h6.5l-.7-5.5-.7-5.4-.6-4.7z"/>
      <path
        class="cls-1"
        d="M197.3 220.7a8.3 8.3 0 0 1 3.9 2.5 10 10 0 0 1 2.1 3.9 25.9 25.9 0 0 1 .7 4l-14.7 1.9a4.9 4.9 0 0 0 2.7 4 5.4 5.4 0 0 0 3 .4 4.5 4.5 0 0 0 2.8-1.3 4.4 4.4 0 0 0 .9-1.5l5.4-.7a6.6 6.6 0 0 1-1.5 3.9 9.9 9.9 0 0 1-7.2 3.9 11.1 11.1 0 0 1-7.4-1.5q-3.4-2.1-4.1-7.7t1.7-8.4a9.8 9.8 0 0 1 6.8-3.7 11.6 11.6 0 0 1 4.9.3zm-7.3 5.6a5.5 5.5 0 0 0-1 3.3l9.1-1.2a4.4 4.4 0 0 0-1.8-3 4.6 4.6 0 0 0-3.3-.7 4.2 4.2 0 0 0-3 1.6z"/>
      <path
        d="M194.2 220.3a10.8 10.8 0 0 1 3.1.4 8.3 8.3 0 0 1 3.9 2.5 10 10 0 0 1 2.1 3.9 25.9 25.9 0 0 1 .7 4l-14.7 1.9a4.9 4.9 0 0 0 2.7 4 5 5 0 0 0 2.1.4h.9a4.1 4.1 0 0 0 3.7-2.8l5.4-.7a6.6 6.6 0 0 1-1.5 3.9 9.9 9.9 0 0 1-7.2 3.9h-1.6a11 11 0 0 1-5.8-1.7q-3.4-2.1-4.1-7.7t1.7-8.4a9.8 9.8 0 0 1 6.8-3.7h1.7m-5.2 9.3l9.1-1.2a4.2 4.2 0 0 0-4.3-3.7h-.7a4.2 4.2 0 0 0-3 1.6 5.5 5.5 0 0 0-1 3.3m5.2-14.3l-2.4.2a14.8 14.8 0 0 0-10.2 5.7c-2.4 3.2-3.3 7.2-2.7 12.1s2.9 9.1 6.5 11.3a15.9 15.9 0 0 0 8.4 2.4h2.3c5.8-.8 9-3.7 10.6-6a12.4 12.4 0 0 0 2.3-5.1h.6l-.5-4.2v-3.1h-.4a21.9 21.9 0 0 0-.5-2.5 15 15 0 0 0-3.2-5.9 13.2 13.2 0 0 0-6.1-4 15.9 15.9 0 0 0-4.5-.6z"/>
      <path class="cls-1" d="M214.1 222.1l-.5-3.7 2.8-.4-.7-5.6 5.2-.7.7 5.6 3.3-.4.5 3.7-3.3.4 1.4 10.6q.2 1.2.5 1.5a3.5 3.5 0 0 0 2 .1h1l.5 3.9-2.5.4q-3.7.6-5.3-.6a3.9 3.9 0 0 1-1.3-2.7l-1.6-12.4z"/>
      <path
        d="M220.9 211.7l.7 5.6 3.3-.4.5 3.7-3.3.4 1.4 10.6q.2 1.2.5 1.5h3l.5 3.9-2.5.4-2.2.2a4.8 4.8 0 0 1-3-.8 3.9 3.9 0 0 1-1.3-2.7l-1.6-12.4-2.8.4-.5-3.7 2.8-.4-.7-5.6 5.2-.7m4.3-5.6l-5 .7-5.2.7-5 .7.7 5v.7l-2.8.4.7 5 .5 3.7.7 5 2.8-.4 1 7.4a8.7 8.7 0 0 0 3.1 6 9.6 9.6 0 0 0 6.1 1.9l3.1-.3 2.5-.4 4.8-.8-.6-4.8-.5-3.9-.7-5.3-3.2.7-.3-2.4 3.3-.4-.7-5-.5-3.7-.7-5-3.3.4v-1l-.7-5z"/>
      <path
        class="cls-1"
        d="M242.8 214.4a6 6 0 0 1 2.8 1.7 5.3 5.3 0 0 1 1.3 2.2 28.8 28.8 0 0 1 .7 3.9l1.6 11.8-5.4.7-1.6-12.3a5.5 5.5 0 0 0-.9-2.6 2.8 2.8 0 0 0-2.9-1 3.8 3.8 0 0 0-3 1.8 6.5 6.5 0 0 0-.5 4.1l1.4 10.9-5.3.7-3.6-27.1 5.3-.7 1.3 9.6a6.5 6.5 0 0 1 2.3-2.8 7.5 7.5 0 0 1 3.1-1.1 8.6 8.6 0 0 1 3.4.2z"/>
      <path
        d="M232.7 208.5l1.3 9.6a6.5 6.5 0 0 1 2.3-2.8 7.5 7.5 0 0 1 3.1-1.1h1.3a8.1 8.1 0 0 1 2.2.3 6 6 0 0 1 2.8 1.7 5.3 5.3 0 0 1 1.3 2.2 28.8 28.8 0 0 1 .7 3.9l1.6 11.8-5.4.7-1.6-12.3a5.5 5.5 0 0 0-.9-2.6 2.6 2.6 0 0 0-2.3-1.1h-.6a3.8 3.8 0 0 0-3 1.8 6.5 6.5 0 0 0-.5 4.1l1.4 10.9-5.3.7-3.6-27.1 5.3-.7m4.3-5.6l-5 .7-5.3.7-5 .7.7 5 3.5 27 .7 5 5-.7 5.3-.7 2.5-.3 5-.7 5.4-.7 5-.7-.7-5-1.6-11.8a32.3 32.3 0 0 0-.9-4.6 10.3 10.3 0 0 0-2.5-4.2 10.9 10.9 0 0 0-5-3 13.1 13.1 0 0 0-3.5-.5h-2.8l-.2-1.5-.7-5z"/>
      <path
        class="cls-1"
        d="M264.5 211.9a8.3 8.3 0 0 1 3.9 2.5 10 10 0 0 1 2.1 3.9 25.9 25.9 0 0 1 .7 4l-14.7 1.9a4.9 4.9 0 0 0 2.7 4 5.4 5.4 0 0 0 3 .4 4.1 4.1 0 0 0 3.7-2.8l5.4-.7a6.6 6.6 0 0 1-1.5 3.9 9.9 9.9 0 0 1-7.2 3.9 11.1 11.1 0 0 1-7.4-1.5q-3.4-2.1-4.1-7.7t1.7-8.4a9.8 9.8 0 0 1 6.8-3.7 11.6 11.6 0 0 1 4.9.3zm-7.3 5.6a5.5 5.5 0 0 0-1 3.3l9.1-1.2a4.4 4.4 0 0 0-1.8-3 4.6 4.6 0 0 0-3.3-.7 4.2 4.2 0 0 0-2.9 1.6z"/>
      <path
        d="M261.4 211.4a10.8 10.8 0 0 1 3.1.4 8.3 8.3 0 0 1 3.9 2.5 10 10 0 0 1 2.1 3.9 25.9 25.9 0 0 1 .7 4l-14.7 1.9a4.9 4.9 0 0 0 2.7 4 5 5 0 0 0 2.1.4h.9a4.1 4.1 0 0 0 3.7-2.8l5.4-.7a6.6 6.6 0 0 1-1.5 3.9 9.9 9.9 0 0 1-7.2 3.9H261a11 11 0 0 1-5.8-1.7q-3.4-2.1-4.1-7.7t1.7-8.4a9.8 9.8 0 0 1 6.8-3.7h1.7m-5.2 9.3l9.1-1.2a4.2 4.2 0 0 0-4.3-3.7h-.8a4.2 4.2 0 0 0-3 1.6 5.5 5.5 0 0 0-1 3.3m5.2-14.3l-2.4.2a14.8 14.8 0 0 0-10.2 5.7c-2.4 3.2-3.3 7.2-2.7 12.1s2.9 9.1 6.5 11.3a15.9 15.9 0 0 0 8.4 2.4h2.3c5.8-.8 9-3.7 10.6-6a12.4 12.4 0 0 0 2.3-5.1h.6l-.5-4.2v-3h-.4a21.5 21.5 0 0 0-.5-2.5 15 15 0 0 0-3.2-5.9 13.2 13.2 0 0 0-6.2-4 15.9 15.9 0 0 0-4.5-.6z"/>
      <path
        class="cls-1"
        d="M302.7 214.9q-2.1 2.3-6.6 2.9l-5.7.7 1.3 9.8-5.7.7-3.6-27.2 11.7-1.5a9.5 9.5 0 0 1 6.7 1.3q2.7 1.8 3.3 6.2t-1.4 7.1zm-5.6-9.2a4.6 4.6 0 0 0-3.1-.5l-5.1.7 1.1 8 5.1-.7a4.4 4.4 0 0 0 2.9-1.4 4 4 0 0 0 .7-3.2 3.8 3.8 0 0 0-1.6-2.9z"/>
      <path
        d="M296 200.2a8.7 8.7 0 0 1 4.9 1.4q2.7 1.8 3.3 6.2t-1.5 7.1q-2.1 2.3-6.6 2.9l-5.7.7 1.3 9.8-5.7.7-3.6-27.2 11.7-1.5h1.9m-6.1 13.7l5.1-.7a4.4 4.4 0 0 0 2.9-1.4 4 4 0 0 0 .7-3.2 3.8 3.8 0 0 0-1.5-2.9 4.1 4.1 0 0 0-2.2-.6h-.9l-5.1.7 1.1 8m6.1-18.7l-2.4.2-11.7 1.5-5 .7.7 5 3.6 27.2.7 5 5-.7 5.7-.7 5-.7-.7-5-.6-4.8h.7c4.1-.5 7.4-2 9.6-4.5s3.4-6.4 2.8-11.2-2.4-7.7-5.4-9.7a13.6 13.6 0 0 0-7.7-2.2z"/>
      <path
        class="cls-1"
        d="M322.6 203.9a6 6 0 0 1 2.8 1.7 5.3 5.3 0 0 1 1.3 2.2 29 29 0 0 1 .7 3.9l1.6 11.8-5.4.7-1.6-12.3a5.5 5.5 0 0 0-.9-2.6 2.8 2.8 0 0 0-2.9-1 3.8 3.8 0 0 0-3 1.8 6.5 6.5 0 0 0-.5 4.1l1.4 10.9-5.3.7-3.6-27.1 5.3-.7 1.3 9.6a6.5 6.5 0 0 1 2.3-2.8 7.5 7.5 0 0 1 3.1-1.1 8.6 8.6 0 0 1 3.4.2z"/>
      <path
        d="M312.5 198l1.3 9.6a6.5 6.5 0 0 1 2.3-2.8 7.5 7.5 0 0 1 3.1-1.1h1.3a8.1 8.1 0 0 1 2.2.3 6 6 0 0 1 2.8 1.7 5.3 5.3 0 0 1 1.3 2.2 29 29 0 0 1 .7 3.9l1.6 11.8-5.4.7-1.6-12.3a5.5 5.5 0 0 0-.9-2.6 2.6 2.6 0 0 0-2.3-1.1h-.6a3.8 3.8 0 0 0-3 1.8 6.5 6.5 0 0 0-.5 4.1l1.4 10.9-5.3.7-3.6-27.1 5.3-.7m4.3-5.6l-5 .7-5.3.7-5 .7.7 5 3.6 27.1.7 5 5-.7 5.3-.7 2.5-.3 5-.7 5.4-.7 5-.7-.7-5-1.8-11.8a32.5 32.5 0 0 0-.9-4.6 10.3 10.3 0 0 0-2.5-4.2 10.9 10.9 0 0 0-5-3 13.1 13.1 0 0 0-3.5-.5h-2.8l-.2-1.5-.7-5z"/>
      <path
        class="cls-1"
        d="M340.2 209.5l2-.7a1.6 1.6 0 0 0 .9-1.6 1.8 1.8 0 0 0-1.1-1.6 5.6 5.6 0 0 0-2.6-.1 3.4 3.4 0 0 0-2.6 1.3 3.8 3.8 0 0 0-.5 1.9l-5.1.7a7.8 7.8 0 0 1 .9-4.5q1.7-2.9 6.8-3.6a12.9 12.9 0 0 1 6.1.5q2.8 1 3.2 4.6l1.2 9.2.3 2.3a3 3 0 0 0 .5 1.4 1.9 1.9 0 0 0 .9.5v.8l-5.7.8a6 6 0 0 1-.5-1.1l-.3-1.2a11 11 0 0 1-2.3 2.3 7.7 7.7 0 0 1-3.7 1.5 6.7 6.7 0 0 1-4.7-1 5.6 5.6 0 0 1-2.4-4.2 5.8 5.8 0 0 1 2.2-5.8 13 13 0 0 1 4.5-1.9zm3.5 2l-1 .6-1.4.5-1.2.4a7.9 7.9 0 0 0-2.3 1 2.4 2.4 0 0 0-1 2.4 2.3 2.3 0 0 0 1 1.8 2.9 2.9 0 0 0 1.9.4 5.6 5.6 0 0 0 3-1.4q1.3-1.2 1-3.8z"/>
      <path
        d="M341.1 201a12.1 12.1 0 0 1 4.1.7q2.8 1 3.2 4.6l1.2 9.2.3 2.3a3 3 0 0 0 .5 1.4 1.9 1.9 0 0 0 .9.5v.8l-5.7.8a6 6 0 0 1-.5-1.1l-.3-1.2a11 11 0 0 1-2.3 2.3 7.7 7.7 0 0 1-3.7 1.5h-1.1a6.4 6.4 0 0 1-3.6-1 5.6 5.6 0 0 1-2.4-4.2 5.8 5.8 0 0 1 2.2-5.8 13 13 0 0 1 4.5-1.9l1.8-.5 2-.7a1.6 1.6 0 0 0 .9-1.6 1.8 1.8 0 0 0-1.1-1.6l-1.4-.2h-1.2a3.4 3.4 0 0 0-2.6 1.3 3.8 3.8 0 0 0-.5 1.9l-5.1.7a7.8 7.8 0 0 1 .9-4.5q1.7-2.9 6.8-3.6h2m-1.6 17.8h.5a5.6 5.6 0 0 0 3-1.4q1.3-1.2 1-3.8l-.3-2-1 .6-1.4.5-1.2.4a7.9 7.9 0 0 0-2.3 1 2.4 2.4 0 0 0-1 2.4 2.3 2.3 0 0 0 1 1.8 2.8 2.8 0 0 0 1.5.4m1.6-22.8l-2.7.2c-5 .7-8.5 2.7-10.5 6a12.7 12.7 0 0 0-1.6 7.4l.4 5.3h.1a12.6 12.6 0 0 0 0 3.4 10.5 10.5 0 0 0 4.6 7.7 11.3 11.3 0 0 0 6.4 1.9h1.8a13.1 13.1 0 0 0 4-1.2l2.8-.4 5.7-.8 5-.7-.7-5v-.8l-.4-3.2-1.2-.4v-.7l-1.2-9.2c-.8-5.8-4.4-7.9-6.5-8.7a17.2 17.2 0 0 0-5.7-1z"/>
      <path
        class="cls-1"
        d="M368.6 199q2.2 1.4 2.7 5.2l1.8 13.6-5.4.7-1.6-12.2a5.7 5.7 0 0 0-.7-2.4 3 3 0 0 0-3.1-1.2 3.7 3.7 0 0 0-3.3 2.8 7.9 7.9 0 0 0-.1 3.1l1.4 10.9-5.3.7-2.7-20.2 5.1-.7.4 2.9a9 9 0 0 1 1.6-2.5 6.7 6.7 0 0 1 3.9-1.8 7.8 7.8 0 0 1 5.3 1.1z"/>
      <path
        d="M364.7 197.9a7.2 7.2 0 0 1 3.9 1.1q2.2 1.4 2.7 5.2l1.8 13.6-5.4.7-1.6-12.2a5.7 5.7 0 0 0-.7-2.4 2.8 2.8 0 0 0-2.5-1.2h-.7a3.7 3.7 0 0 0-3.3 2.8 7.9 7.9 0 0 0-.1 3.1l1.4 10.9-5.3.7-2.6-20.2 5.1-.7.4 2.9a9 9 0 0 1 1.6-2.5 6.7 6.7 0 0 1 3.9-1.8h1.4m0-5h-2a13 13 0 0 0-3.6 1l-2.3.3-5.1.7-5 .7.7 5 2.6 20.1.7 5 5-.7 5.3-.7 4.7-.6 2.8-.4 5.4-.7 5-.7-.7-5-1.8-13.6c-.5-4.1-2.2-7-5-8.7a12.2 12.2 0 0 0-6.6-1.8z"/>
      <path class="cls-1" d="M373.8 201.1l-.5-3.7 2.8-.4-.7-5.6 5.2-.7.7 5.6 3.3-.4.5 3.7-3.3.4 1.4 10.6q.2 1.2.5 1.5a3.5 3.5 0 0 0 2 .1h1l.5 3.9-2.5.4q-3.7.6-5.3-.6a3.9 3.9 0 0 1-1.3-2.7l-1.6-12.4z"/>
      <path
        d="M380.6 190.7l.7 5.6 3.3-.4.5 3.7-3.3.4 1.4 10.6q.2 1.2.5 1.5h3l.5 3.9-2.5.4-2.2.2a4.8 4.8 0 0 1-3-.8 3.9 3.9 0 0 1-1.3-2.7l-1.6-12.4-2.8.4-.5-3.7 2.8-.4-.7-5.6 5.2-.7m4.3-5.6l-5 .7-5.2.7-5 .7.7 5v.7l-2.8.4.7 5 .5 3.7.7 5 2.8-.4 1 7.4a8.7 8.7 0 0 0 3.1 6 9.6 9.6 0 0 0 6.1 1.9l3.1-.3 2.5-.4 4.8-.8-.6-4.8-.5-3.9-.7-5.3-3.2.7-.3-2.4 3.3-.4-.7-5-.5-3.7-.7-5-3.3.4v-1l-.7-5z"/>
      <path class="cls-1" d="M407.1 210.7q-2.1 3.5-7.3 4.2t-8.2-2.1a12.6 12.6 0 0 1-2-15.1q2.1-3.5 7.3-4.2t8.2 2.2a12.6 12.6 0 0 1 2 15.1zm-4.6-2.4a9.5 9.5 0 0 0-1.2-9.3 4.7 4.7 0 0 0-7.1.9 9.4 9.4 0 0 0 1.2 9.3 4.7 4.7 0 0 0 7.1-.9z"/>
      <path
        d="M398.8 193.3a8.6 8.6 0 0 1 6.2 2.3 12.6 12.6 0 0 1 2 15.1q-2.1 3.5-7.3 4.2h-1.9a8.6 8.6 0 0 1-6.2-2.3 12.6 12.6 0 0 1-2-15.1q2.1-3.5 7.3-4.2h1.9m-.5 17.2h.8a4.2 4.2 0 0 0 3.3-2.1 9.5 9.5 0 0 0-1.2-9.3 4 4 0 0 0-3-1.2h-.8a4.2 4.2 0 0 0-3.3 2.1 9.4 9.4 0 0 0 1.2 9.3 4.1 4.1 0 0 0 3 1.2m.5-22.2l-2.6.2c-6.3.8-9.4 4-10.9 6.6a17.6 17.6 0 0 0 2.8 21.3 13.7 13.7 0 0 0 9.7 3.6l2.6-.2c6.2-.8 9.4-4 10.9-6.5a17.6 17.6 0 0 0-2.8-21.3 13.7 13.7 0 0 0-9.7-3.7z"/>
      <path
        class="cls-1"
        d="M436.2 189a5.9 5.9 0 0 1 2.6 1.5 5.8 5.8 0 0 1 1.5 2.4 18.1 18.1 0 0 1 .6 2.9l1.6 12.7-5.4.7-1.7-12.8a4.2 4.2 0 0 0-.6-1.8 2.6 2.6 0 0 0-2.8-1.1 3 3 0 0 0-2.8 2.2 5.7 5.7 0 0 0-.1 2.4l1.6 12-5.3.7-1.6-12a6.8 6.8 0 0 0-.7-2.6 2.6 2.6 0 0 0-2.8-1.1 3.1 3.1 0 0 0-2.8 1.9 5.7 5.7 0 0 0-.1 2.5l1.6 12.1-5.3.7-2.7-20 5.1-.7.4 2.9a8.6 8.6 0 0 1 1.5-2.5 7.4 7.4 0 0 1 7.7-1.2 5.9 5.9 0 0 1 2.1 2.2 6.8 6.8 0 0 1 2.2-2.9 7.9 7.9 0 0 1 3.5-1.3 7.1 7.1 0 0 1 2.7.2z"/>
      <path
        d="M434.4 188.8l1.8.2a5.9 5.9 0 0 1 2.6 1.5 5.8 5.8 0 0 1 1.5 2.4 18.1 18.1 0 0 1 .6 2.9l1.6 12.7-5.4.7-1.7-12.8a4.2 4.2 0 0 0-.6-1.8 2.5 2.5 0 0 0-2.2-1.1h-.6a3 3 0 0 0-2.8 2.2 5.7 5.7 0 0 0-.1 2.4l1.6 12-5.3.7-1.6-12a6.8 6.8 0 0 0-.7-2.6 2.4 2.4 0 0 0-2.2-1.2h-.6a3.1 3.1 0 0 0-2.8 1.9 5.7 5.7 0 0 0-.1 2.5l1.6 12.1-5.3.7-2.7-19.9 5.1-.7.4 2.9a8.6 8.6 0 0 1 1.5-2.5 6.4 6.4 0 0 1 3.8-1.7h1.2a5.6 5.6 0 0 1 2.7.6 5.9 5.9 0 0 1 2.1 2.2 6.8 6.8 0 0 1 2.2-2.9 7.9 7.9 0 0 1 3.5-1.3h.9m0-5h-1.5a12.9 12.9 0 0 0-5.7 2.1 10.9 10.9 0 0 0-4.1-.8h-1.8a12.8 12.8 0 0 0-3.5.9l-2.3.3-5.1.7-5 .7.7 5 2.6 20.1.7 5 5-.7 5.3-.7 1.5-.2 5-.7 5.3-.7 1.4-.2 5-.7 5.4-.7 4.9-.6-.6-4.9-1.6-12.7a22.6 22.6 0 0 0-.8-3.8 10.9 10.9 0 0 0-7.6-7.2 12.3 12.3 0 0 0-3-.4z"/>
      <path class="cls-1" d="M474.5 176.7l.6 4.8-8.1 1.1 2.9 22.4-5.7.8-2.9-22.4-8.2 1.1-.6-4.8z"/>
      <path d="M474.5 176.7l.6 4.8-8.1 1.1 2.9 22.4-5.7.8-2.9-22.4-8.2 1.1-.6-4.8 22-2.9m4.3-5.6l-5 .7-22 2.9-5 .7.7 5 .6 4.8.7 5 5-.7 3.2-.4 2.3 17.4.7 5 5-.7 5.7-.8 5-.7-.7-5-2.3-17.4 3.2-.4 5-.7-.7-5-.6-4.8-.7-5z"/>
      <path
        class="cls-1"
        d="M492.8 181.6a5.9 5.9 0 0 1 2.8 1.6 5.3 5.3 0 0 1 1.3 2.2 29 29 0 0 1 .7 3.9l1.6 11.8-5.4.7-1.6-12.3a5.5 5.5 0 0 0-.9-2.6 2.8 2.8 0 0 0-2.9-1 3.8 3.8 0 0 0-3 1.8 6.5 6.5 0 0 0-.5 4.1l1.4 10.9-5.3.7-3.6-27.1 5.3-.7 1.3 9.6a6.5 6.5 0 0 1 2.3-2.8 7.5 7.5 0 0 1 3.1-1.1 8.6 8.6 0 0 1 3.4.3z"/>
      <path
        d="M482.7 175.7l1.3 9.6a6.5 6.5 0 0 1 2.3-2.8 7.5 7.5 0 0 1 3.1-1.1h1.3a8.1 8.1 0 0 1 2.2.3 5.9 5.9 0 0 1 2.8 1.6 5.3 5.3 0 0 1 1.3 2.2 29 29 0 0 1 .7 3.9l1.6 11.8-5.4.7-1.6-12.3a5.5 5.5 0 0 0-.9-2.6 2.6 2.6 0 0 0-2.3-1.1h-.6a3.8 3.8 0 0 0-3 1.8 6.5 6.5 0 0 0-.5 4.1l1.4 10.9-5.3.7-3.6-27.1 5.3-.7m4.3-5.6l-5 .7-5.3.7-5 .7.7 5 3.6 27.1.7 5 5-.7 5.3-.7 5-.7 2.5-.3 5.4-.7 5-.7-.7-5-1.6-11.8a32.5 32.5 0 0 0-.9-4.6 10.3 10.3 0 0 0-2.5-4.2 10.9 10.9 0 0 0-5-3 13.1 13.1 0 0 0-3.5-.5H488l-.2-1.5-.7-5z"/>
      <path class="cls-1" d="M506.5 177.2l-5.3.7-.6-4.9 5.3-.7zm-5 3.1l5.3-.7 2.6 20.1-5.3.7z"/>
      <path d="M505.8 172.4l.6 4.9-5.3.7-.6-4.9 5.3-.7m1 7.3l2.6 20.1-5.3.7-2.6-20.1 5.3-.7m3.4-12.9l-5 .7-5.3.7-5 .7.7 5 .3 2.3.4 3 .6 4.5 2.3 17.6.7 5 5-.7 5.3-.7 5-.7-.7-5-2.3-17.6-.6-4.5-.4-3-.3-2.3-.7-5z"/>
      <path
        class="cls-1"
        d="M525.1 177.6a8.3 8.3 0 0 1 3.9 2.5 10 10 0 0 1 2.1 3.9 25.8 25.8 0 0 1 .7 4l-14.7 2a4.9 4.9 0 0 0 2.7 4 5.4 5.4 0 0 0 3 .4 4.5 4.5 0 0 0 2.8-1.3 4.4 4.4 0 0 0 .9-1.5l5.4-.7a6.6 6.6 0 0 1-1.5 3.9 9.9 9.9 0 0 1-7.2 3.9 11.1 11.1 0 0 1-7.4-1.5q-3.4-2.1-4.1-7.7t1.7-8.4a9.8 9.8 0 0 1 6.8-3.7 11.6 11.6 0 0 1 4.9.2zm-7.3 5.6a5.5 5.5 0 0 0-1 3.3l9.1-1.2a4.4 4.4 0 0 0-1.8-3 4.6 4.6 0 0 0-3.3-.7 4.2 4.2 0 0 0-3 1.6z"/>
      <path
        d="M521.9 177.2a10.8 10.8 0 0 1 3.1.4 8.3 8.3 0 0 1 3.9 2.5 10 10 0 0 1 2.1 3.9 25.8 25.8 0 0 1 .7 4l-14.6 2a4.9 4.9 0 0 0 2.7 4 5 5 0 0 0 2.1.4h.9a4.5 4.5 0 0 0 2.8-1.3 4.4 4.4 0 0 0 .9-1.5l5.4-.7a6.6 6.6 0 0 1-1.5 3.9 9.9 9.9 0 0 1-7.2 3.9h-1.6a11 11 0 0 1-5.8-1.7q-3.4-2.1-4.1-7.7t1.7-8.4a9.8 9.8 0 0 1 6.8-3.7h1.7m-5.2 9.3l9.1-1.2a4.2 4.2 0 0 0-4.3-3.7h-.8a4.2 4.2 0 0 0-3 1.6 5.5 5.5 0 0 0-1 3.3m5.2-14.3l-2.4.2a14.8 14.8 0 0 0-10.2 5.7c-2.4 3.2-3.3 7.2-2.7 12.1s2.9 9.1 6.5 11.3a15.9 15.9 0 0 0 8.4 2.4h2.3c5.8-.8 9-3.7 10.6-6a12.4 12.4 0 0 0 2.3-5.1h.6l-.5-4.2v-3.1h-.4a21.8 21.8 0 0 0-.5-2.5 15 15 0 0 0-3.2-5.9 13.2 13.2 0 0 0-6.1-4 15.9 15.9 0 0 0-4.5-.6z"/>
      <path class="cls-1" d="M545.3 174.6l5.7-.7-4.6 21.1-5.5.7-9.9-19.2 5.9-.8L543 190z"/>
      <path d="M551 173.8l-4.6 21.1-5.5.7-9.9-19.2 5.9-.8L543 190l2.3-15.4 5.7-.7m6.4-5.9l-7.1.9-5.7.7-3.7.5-.3 1.8-.7-1.7-3.8.5-5.9.8-7 .9 3.2 6.3 9.9 19.2 1.6 3.1 3.5-.5 5.5-.7 3.5-.5.8-3.4 4.6-21.1 1.5-7z"/>
      <path
        class="cls-1"
        d="M567.1 172.1a8.3 8.3 0 0 1 3.9 2.5 10 10 0 0 1 2.2 3.9 25.9 25.9 0 0 1 .7 4l-14.7 1.9a4.9 4.9 0 0 0 2.7 4 5.4 5.4 0 0 0 3 .4 4.1 4.1 0 0 0 3.7-2.8l5.4-.7a6.6 6.6 0 0 1-1.5 3.9 9.9 9.9 0 0 1-7.2 3.9 11.1 11.1 0 0 1-7.4-1.5q-3.4-2.1-4.1-7.7t1.7-8.4a9.8 9.8 0 0 1 6.8-3.7 11.6 11.6 0 0 1 4.8.3zm-7.3 5.6a5.5 5.5 0 0 0-1 3.3l9.1-1.2a4.4 4.4 0 0 0-1.8-3 4.6 4.6 0 0 0-3.3-.7 4.2 4.2 0 0 0-3 1.6z"/>
      <path
        d="M564 171.7a10.8 10.8 0 0 1 3.1.4 8.3 8.3 0 0 1 3.9 2.5 10 10 0 0 1 2.2 3.9 26 26 0 0 1 .7 4l-14.7 1.9a4.9 4.9 0 0 0 2.7 4 5 5 0 0 0 2.1.4h.9a4.1 4.1 0 0 0 3.7-2.8l5.4-.7a6.6 6.6 0 0 1-1.5 3.9 9.9 9.9 0 0 1-7.2 3.9h-1.6a11 11 0 0 1-5.8-1.7q-3.4-2.1-4.1-7.7t1.7-8.4a9.8 9.8 0 0 1 6.8-3.7h1.7m-5.2 9.3l9.1-1.2a4.2 4.2 0 0 0-4.3-3.7h-.8a4.2 4.2 0 0 0-3 1.6 5.5 5.5 0 0 0-1 3.3m5.2-14.3l-2.4.2a14.8 14.8 0 0 0-10.2 5.7c-2.4 3.2-3.3 7.2-2.7 12.1s2.9 9.1 6.5 11.3a15.9 15.9 0 0 0 8.4 2.4h2.3c5.8-.8 9-3.7 10.6-6a12.4 12.4 0 0 0 2.3-5.1h.6l-.5-4.2v-3.1h-.4a21.8 21.8 0 0 0-.5-2.5 15 15 0 0 0-3.2-5.9 13.2 13.2 0 0 0-6.2-4 15.9 15.9 0 0 0-4.5-.6z"/>
      <path
        class="cls-1"
        d="M580.9 183.8a3.5 3.5 0 0 0 1 1.9q1.1.9 3.8.6a5.6 5.6 0 0 0 2.4-.8 1.6 1.6 0 0 0-.2-2.8 30.5 30.5 0 0 0-5.7-.9 11.5 11.5 0 0 1-5.1-1.5 4.6 4.6 0 0 1-1.9-3.4 6.3 6.3 0 0 1 1.6-5.1 8.9 8.9 0 0 1 5.9-2.8 11.4 11.4 0 0 1 6.4.7q2.6 1.2 3.4 4.8l-5.3.7a3.1 3.1 0 0 0-.8-1.5 3.7 3.7 0 0 0-3.1-.7 4.3 4.3 0 0 0-2.4.9 1.6 1.6 0 0 0-.6 1.4 1.4 1.4 0 0 0 1 1.2 33.9 33.9 0 0 0 5.7.7 10.2 10.2 0 0 1 5 1.6 5.1 5.1 0 0 1 2 3.6 6.2 6.2 0 0 1-1.6 5.2q-2 2.2-6.6 2.8t-7.3-1.1a6.6 6.6 0 0 1-2.9-4.8z"/>
      <path
        d="M584.7 168.9a10 10 0 0 1 4.2.8q2.6 1.2 3.4 4.8l-5.3.7a2.7 2.7 0 0 0-3-2.3h-.9a4.3 4.3 0 0 0-2.4.9 1.6 1.6 0 0 0-.6 1.4 1.4 1.4 0 0 0 1 1.2 33.9 33.9 0 0 0 5.7.7 10.2 10.2 0 0 1 5 1.6 5.1 5.1 0 0 1 2 3.6 6.2 6.2 0 0 1-1.6 5.2q-2 2.2-6.6 2.8l-2.4.2a8.6 8.6 0 0 1-4.9-1.2 6.6 6.6 0 0 1-2.9-4.8l5.3-.7a3.5 3.5 0 0 0 1 1.9 3.8 3.8 0 0 0 2.4.7h1.3a5.6 5.6 0 0 0 2.4-.8 1.6 1.6 0 0 0-.2-2.8 30.5 30.5 0 0 0-5.7-.9 11.5 11.5 0 0 1-5.1-1.5 4.6 4.6 0 0 1-1.9-3.4 6.3 6.3 0 0 1 1.6-5.1 8.9 8.9 0 0 1 5.9-2.8h2.1m0-5l-2.8.2a13.7 13.7 0 0 0-9.1 4.6 11.3 11.3 0 0 0-2.7 8.9 11.5 11.5 0 0 0 .6 2.5h-.9l.7 5a11.6 11.6 0 0 0 5.1 8.3 13.5 13.5 0 0 0 7.7 2.1l3-.2c4.3-.6 7.6-2 9.7-4.4a11.1 11.1 0 0 0 2.8-9.2 10.7 10.7 0 0 0-.8-2.9h.3l-1.2-5.4c-1.1-5-4-7.2-6.2-8.3a15 15 0 0 0-6.3-1.3z"/>
      <path class="cls-3" d="M611.7 163.4l-5.3.7-.6-4.9 5.3-.7zm-4.3 27.4h1a1.7 1.7 0 0 0 1.1-.5 2.1 2.1 0 0 0 .2-1.5l-2.9-22.1 5.3-.7 2.9 22.2a7.1 7.1 0 0 1-.6 4.7q-1 1.6-4.5 2.1H608z"/>
      <path
        d="M611.1 158.5l.6 4.9-5.3.7-.6-4.9 5.3-.7m1 7.3L615 188a7.1 7.1 0 0 1-.6 4.7q-1 1.6-4.5 2.1H608l-.6-4.2h1a1.7 1.7 0 0 0 1.1-.5 2.1 2.1 0 0 0 .2-1.5l-2.9-22.1 5.3-.7m3.3-13l-5 .7-5.3.7-5 .7.7 5 .6 4.9.7 5 2.1 16.3h-2.6l.7 5.4.6 4.2.6 4.8 4.8-.5h2c3.9-.5 6.6-2 8.1-4.4a11.8 11.8 0 0 0 1.3-8l-2.6-19.7-.7-5-.6-4.9-.7-5z"/>
      <path
        class="cls-3"
        d="M622.3 164.5l1.6 12.1a6.4 6.4 0 0 0 .7 2.5 2.8 2.8 0 0 0 3 1.2 3.7 3.7 0 0 0 3.4-2.7 8 8 0 0 0 .1-3.2l-1.4-10.9 5.3-.7 2.6 20.1-5.1.7-.4-2.8-.3.6-.6.9a7.4 7.4 0 0 1-2.2 1.8 8.2 8.2 0 0 1-2.6.8q-4.5.6-6.4-2.4a12.4 12.4 0 0 1-1.6-5.1l-1.6-12.1z"/>
      <path
        d="M635 162.8l2.6 20.1-5.1.7-.4-2.8-.3.6-.6.9a7.4 7.4 0 0 1-2.2 1.8 8.2 8.2 0 0 1-2.6.8H625a5.6 5.6 0 0 1-5-2.5 12.4 12.4 0 0 1-1.6-5.1l-1.6-12.1 5.4-.7 1.6 12.1a6.4 6.4 0 0 0 .7 2.5 2.6 2.6 0 0 0 2.4 1.2h.6a3.7 3.7 0 0 0 3.4-2.7 8 8 0 0 0 .1-3.2l-1.4-10.9 5.3-.7m4.3-5.6l-5 .7-5.3.7-2.4.3-5 .7-5.4.7-5 .7.7 5 1.6 12.1a17 17 0 0 0 2.3 7.2 10.6 10.6 0 0 0 9.2 4.8h2a13.8 13.8 0 0 0 3.5-.9l2.6-.3 5.1-.7 5-.7-.7-5-2.4-20.4-.7-5z"/>
      <path
        class="cls-3"
        d="M646 175.3a3.5 3.5 0 0 0 1 1.9q1.1.9 3.8.6a5.6 5.6 0 0 0 2.4-.8 1.6 1.6 0 0 0-.2-2.8 30.4 30.4 0 0 0-5.7-.9 11.5 11.5 0 0 1-5.1-1.5 4.6 4.6 0 0 1-1.9-3.4 6.3 6.3 0 0 1 1.6-5.1 8.9 8.9 0 0 1 5.9-2.8 11.4 11.4 0 0 1 6.4.7q2.6 1.2 3.4 4.8l-5.3.7a3.2 3.2 0 0 0-.8-1.5 3.6 3.6 0 0 0-3.1-.7 4.3 4.3 0 0 0-2.4.9 1.6 1.6 0 0 0-.6 1.4 1.4 1.4 0 0 0 .9 1.2 33.9 33.9 0 0 0 5.7.7 10.2 10.2 0 0 1 5 1.6 5.1 5.1 0 0 1 2 3.6 6.2 6.2 0 0 1-1.6 5.2q-2 2.2-6.6 2.8t-7.3-1.1a6.6 6.6 0 0 1-2.9-4.8z"/>
      <path
        d="M649.9 160.4a10 10 0 0 1 4.2.8q2.6 1.2 3.4 4.8l-5.3.7a3.2 3.2 0 0 0-.8-1.5 3.1 3.1 0 0 0-2.2-.7h-.9a4.3 4.3 0 0 0-2.4.9 1.6 1.6 0 0 0-.6 1.4 1.4 1.4 0 0 0 .9 1.2 33.9 33.9 0 0 0 5.7.7 10.2 10.2 0 0 1 5 1.6 5.1 5.1 0 0 1 2 3.6 6.2 6.2 0 0 1-1.6 5.2q-2 2.2-6.6 2.8l-2.4.2a8.6 8.6 0 0 1-4.9-1.2 6.6 6.6 0 0 1-2.9-4.8l5.3-.7a3.5 3.5 0 0 0 1 1.9 3.8 3.8 0 0 0 2.4.7h1.3a5.6 5.6 0 0 0 2.4-.8 1.6 1.6 0 0 0-.2-2.8 30.4 30.4 0 0 0-5.7-.9 11.5 11.5 0 0 1-5.1-1.5 4.6 4.6 0 0 1-1.9-3.4 6.3 6.3 0 0 1 1.6-5.1 8.9 8.9 0 0 1 5.9-2.8h2.1m0-5l-2.8.2a13.7 13.7 0 0 0-9.1 4.6 11.3 11.3 0 0 0-2.7 9 11.4 11.4 0 0 0 .6 2.5h-.9l.7 5a11.6 11.6 0 0 0 5.1 8.3 13.5 13.5 0 0 0 7.7 2.1l3-.2c4.3-.6 7.6-2 9.7-4.4a11.1 11.1 0 0 0 2.8-9.2 10.7 10.7 0 0 0-.8-2.9h.3l-1.2-5.4c-1.1-5-4-7.2-6.2-8.3a15 15 0 0 0-6.3-1.3z"/>
      <path class="cls-3" d="M659.6 163.6l-.5-3.7 2.8-.4-.7-5.6 5.2-.7.7 5.6 3.3-.4.5 3.7-3.3.4 1.4 10.6q.2 1.2.5 1.5a3.5 3.5 0 0 0 2 .1h1l.5 3.9-2.5.4q-3.7.6-5.3-.6a3.9 3.9 0 0 1-1.3-2.7l-1.6-12.4z"/>
      <path
        d="M666.4 153.1l.7 5.6 3.3-.4.5 3.7-3.3.4L669 173q.2 1.2.5 1.5h3l.5 3.9-2.5.4-2.2.2a4.8 4.8 0 0 1-3-.8 3.9 3.9 0 0 1-1.3-2.7l-1.6-12.4-2.8.4-.5-3.7 2.8-.4-.7-5.6 5.2-.7m4.3-5.6l-5 .7-5.2.7-5 .7.7 5v.7l-2.8.4.7 5 .5 3.7.7 5 2.8-.4 1 7.4a8.7 8.7 0 0 0 3.1 5.9 9.6 9.6 0 0 0 6.1 1.9l3.1-.3 2.5-.4 4.8-.8-.6-4.8-.5-3.9-.7-5.3-3.2.6-.3-2.4 3.3-.4-.7-5-.5-3.7-.7-5-3.3.4v-.7l-.7-5z"/>
      <path
        class="cls-1"
        d="M676.5 151.3a9.8 9.8 0 0 1 5.2-2.1 11.6 11.6 0 0 1 7.2 1.1 6.9 6.9 0 0 1 3.5 5.5 6.8 6.8 0 0 1-.7 4.2 13.9 13.9 0 0 1-2.4 2.9l-1.2 1.2a4 4 0 0 0-1.2 2.1 8.3 8.3 0 0 0 0 2.2l-5 .7a14.6 14.6 0 0 1 0-4.4 7.7 7.7 0 0 1 2.1-3.1l1.2-1.2a4.8 4.8 0 0 0 .9-1.2 3.8 3.8 0 0 0 .4-2.3 4.4 4.4 0 0 0-1.2-2.5 3.5 3.5 0 0 0-3.1-.8 3.3 3.3 0 0 0-2.8 1.8 5.5 5.5 0 0 0-.5 3.1l-5.3.7q-.3-5.3 2.9-7.9zm5.8 20.4l5.5-.7.7 5.3-5.5.7z"/>
      <path
        d="M683.7 149a10.7 10.7 0 0 1 5.2 1.2 6.9 6.9 0 0 1 3.5 5.5 6.8 6.8 0 0 1-.7 4.2 13.9 13.9 0 0 1-2.4 2.9l-1.2 1.2a4 4 0 0 0-1.2 2.1 8.3 8.3 0 0 0 0 2.2l-5 .7a14.6 14.6 0 0 1 0-4.4 7.7 7.7 0 0 1 2.1-3.1l1.2-1.2a4.8 4.8 0 0 0 .9-1.2 3.8 3.8 0 0 0 .4-2.3 4.4 4.4 0 0 0-1.2-2.5 2.9 2.9 0 0 0-2.3-.8h-.9a3.3 3.3 0 0 0-2.8 1.8 5.5 5.5 0 0 0-.5 3.1l-5.3.7q-.5-5.3 2.7-7.9a9.8 9.8 0 0 1 5.2-2.1h2m4.1 21.9l.7 5.3-5.5.7-.7-5.3 5.5-.7m-3.8-27l-2.7.2a14.7 14.7 0 0 0-7.8 3.2c-2.3 2-5 5.7-4.4 12.2l.5 5.2 5.2-.7 2.7-.4a14.6 14.6 0 0 0-.2 3.5h-.3l.7 5v2.4h.1l.4 2.9.7 5 5-.7 5.5-.7 5-.7-.7-5-.7-5.3-.4-3.2.6-.6a18.1 18.1 0 0 0 3.2-4.1 12.6 12.6 0 0 0-4.9-16.5 15.7 15.7 0 0 0-7.5-1.8z"/>
      <path class="cls-1" d="M192.8 185.1q-1.6-5.3-5.2-7.2a10.2 10.2 0 0 0-8-.6l-4.7 1.9-7.8 3.7 2.1 5.3 2.2-1 11.6 29.5 4.2-1.9-5.4-13.8a36.1 36.1 0 0 0 6.4-3.3 13 13 0 0 0 3.8-3.6 8.6 8.6 0 0 0 1.4-4.1 13.6 13.6 0 0 0-.6-4.9z"/>
      <path
        d="M188.3 186.1a7.1 7.1 0 0 1 .3 3 4.5 4.5 0 0 1-1.2 2.3 10.1 10.1 0 0 1-2.9 2.1 50.1 50.1 0 0 1-4.9 2.1l-4.1-10.6 3.2-1.5 2.5-.9a6.4 6.4 0 0 1 4.4 0 5.1 5.1 0 0 1 2.7 3.5zM222.5 195.1l-.2-1-.3-1.2a10.9 10.9 0 0 0-3.6-5.8 6.5 6.5 0 0 0-6.1-.8 5.1 5.1 0 0 0-2 1.1l-1.4 1.6-2.2-12-5.9.7.9 4.9h1.5l5.6 30.5 4.2-.5-3.1-17.6a4 4 0 0 1 2.8-3.5 4.7 4.7 0 0 1 3.5.1 4.4 4.4 0 0 1 2.1 2.9l.2.6v.7l2.7 16.1 4.1-.5zM292.354 170.94l12.554-3.743 1.188 3.987-12.554 3.742zM328 155.6q-1.5-4.4-4-5.4a8.8 8.8 0 0 0-6 0 6.3 6.3 0 0 0-4.2 3.5 8.7 8.7 0 0 0-.1 6.2 7.4 7.4 0 0 0 1.6 2.9 7.3 7.3 0 0 0 2.6 1.8l2.3.6 2.4.3 2.3.3a6.7 6.7 0 0 1 2.1.8 3.5 3.5 0 0 1 1.3 1.2 6.2 6.2 0 0 1 .8 1.7 5.5 5.5 0 0 1 .2 2.3 5.3 5.3 0 0 1-.6 1.9 4.9 4.9 0 0 1-2.9 2.3 5.8 5.8 0 0 1-4.8-.5 7 7 0 0 1-3.1-4.3l-2.1.8a11.8 11.8 0 0 0 4.1 6 7 7 0 0 0 6.4.8 8 8 0 0 0 2.7-1.4 6.7 6.7 0 0 0 1.9-2.3 8 8 0 0 0 .8-3 9.6 9.6 0 0 0-.4-3.5 7 7 0 0 0-3.6-4.6 9.1 9.1 0 0 0-2.2-.7l-2.5-.3-2.4-.3-2.2-.6a4.7 4.7 0 0 1-2.6-3.1 5.1 5.1 0 0 1 .2-3.7 4.9 4.9 0 0 1 3.3-2.4 5.7 5.7 0 0 1 4.1.1q1.7.8 2.7 3.7zM338.9 140.4l-3.8 2 2.5 5.8 3.8-1.9-2.5-5.9zM342.7 149.3l-5.5 2.8 2.1 4.9 1.7-.9 7.8 18.1 3.8-1.9-9.9-23z"/>
      <path class="cls-1" d="M362.3 131.9l-6.6 1.9-2.2-7.2-5.7 1.7 2.2 7.3-5.3 1.5 2 7.2 5.3-1.6 5.7 19.9q1.3 4.5 3.8 5.9a6.4 6.4 0 0 0 5.6.2l1.9-.9 2-1.3-2.8-7-.6.7-1.1.6a3.5 3.5 0 0 1-2 .2 2 2 0 0 1-1.4-1.6l-5.2-18.4 6.6-1.7z"/>
      <path
        d="M393.1 129.2l-21.7 5 1.3 4.9 3.7-.8 7.7 31 18.7-4.3-1.3-5-14.6 3.2-2.8-11 13.5-3.1-1.2-5-13.6 3-2.4-9.7 14-3.2-1.3-5zM247.2 187.7a8 8 0 0 1-1.3 4 7.4 7.4 0 0 1-4.4 2.8 3.9 3.9 0 0 1-3.6-.3 5.7 5.7 0 0 1-1.9-3 8 8 0 0 1-.4-2.4 4.3 4.3 0 0 1 .8-2.4 10.5 10.5 0 0 1 2.6-2.5 38 38 0 0 1 5-2.9z"/>
      <path class="cls-1" d="M331.5 107.2l-6-29h-20l9-49 8 34h9v44zM345.5 67.2L395.1 47l-16.8-14.2L408.5 0l-50.4 33.6 11 11.8-23.6 21.8zM618.1 349.5l3.2-15.9-7.4-25.8h15l2.3 10.7 6.5-10.7h16L635 335.1l-2.9 14.4h-14z"/>
      <path d="M648.3 310.7l-16 23.3-2.5 12.7h-8.2l2.6-13.2-6.5-22.8h8.9l3.2 15.2h.1l9.3-15.2h8.9m10.8-5.7h-22.8l-1.7 2.7-2 3.2-.3-1.4-1-4.5h-21l2.1 7.3 6.1 21.5-2.3 11.8-1.4 6.8h19.9l.9-4.6 2.3-11.6 15.3-22.3 6.1-8.9z"/>
      <path class="cls-1" d="M640.2 349.5l8.3-41.7h29.3l-2.4 12.2h-15.3l-.4 2h12.9l-2.4 12.1h-12.9l-.6 3.3h15.2l-2.5 12.1h-29.2z"/>
      <path d="M674.4 310.7l-1.3 6.4h-15.3l-1.6 7.7h12.9l-1.3 6.4H655l-1.8 9h15.2l-1.3 6.4h-23.5l7.2-36h23.5m6.9-5.7h-35.1l-.9 4.6-7.2 36-1.4 6.8h35.1l.9-4.6 1.3-6.4 1.4-6.8H673l.4-2.2 1.3-6.4.6-3.2h2.4l.9-4.6 1.3-6.4 1.4-6.8z"/>
      <path
        class="cls-1"
        d="M684.4 350a18.3 18.3 0 0 1-10.9-3.2c-2.4-1.7-5-5.1-3.7-11.3l.7-2.2h10.1a21.1 21.1 0 0 1-6.2-4.2 10.5 10.5 0 0 1-2.7-9.8 13.3 13.3 0 0 1 6-8.9 19.6 19.6 0 0 1 10.8-3c4.5 0 8.1 1.3 10.7 3.7s4.1 5.2 2.9 10.7v.3l-1 2h-7.5a17.1 17.1 0 0 1 5.2 4c2.2 2.6 3 6 2.2 10a13.3 13.3 0 0 1-6 9 19.8 19.8 0 0 1-10.6 2.9zm-1-12.6a4.7 4.7 0 0 0 2.3.5 2.4 2.4 0 0 0 1.3-.4l.4-.4a2.7 2.7 0 0 0 .1-.8 15 15 0 0 0-3.1-1.7h-.4l-.4 2.1a3.2 3.2 0 0 0-.2.8zm2.3-16.9a19.3 19.3 0 0 0 2.7 1.3l.2-1.1c0-.2.1-.8-.1-1a1.6 1.6 0 0 0-1.2-.3 2.2 2.2 0 0 0-1.3.4l-.4.3z"/>
      <path
        d="M688.7 310.2q5.6 0 8.8 3t2.1 8.1h-8.1a3.9 3.9 0 0 0-.7-3.5 4.2 4.2 0 0 0-3.3-1.3 5 5 0 0 0-2.9.9 3.4 3.4 0 0 0-1.6 2.2 2.8 2.8 0 0 0 .8 3 24.4 24.4 0 0 0 5.3 2.6q5.3 1.9 7.8 4.8t1.5 7.6a10.5 10.5 0 0 1-4.7 7.1 17 17 0 0 1-9.3 2.4 15.5 15.5 0 0 1-9.2-2.7q-3.8-2.7-2.5-8.3h8.1q-.6 2.7 1 3.7a7.2 7.2 0 0 0 4 1 5.2 5.2 0 0 0 2.9-.9 3.4 3.4 0 0 0 1.6-2.2q.4-2.2-.6-3.3a15.5 15.5 0 0 0-4.2-2.4q-5.9-2.1-8.7-5a7.6 7.6 0 0 1-1.9-7.3 10.5 10.5 0 0 1 4.8-7 16.7 16.7 0 0 1 9.3-2.5m0-5.7a22.4 22.4 0 0 0-12.3 3.4 16.3 16.3 0 0 0-7.3 10.7 13.3 13.3 0 0 0 2.8 11.7h-3.4l-1.3 3.9v.6c-1.8 8.1 2.2 12.4 4.8 14.2a21.1 21.1 0 0 0 12.5 3.8 22.6 22.6 0 0 0 12.3-3.3 16.3 16.3 0 0 0 7.3-10.8c1.1-5.6-.5-9.4-2.2-11.8h.8l1.6-3.1h.1l.3-.6.2-.7c1.2-5.3-.2-10.1-3.7-13.4s-7.5-4.5-12.7-4.5zm-2.5 32.9z"/>
    </g>
  </g>
</svg>
