<svg style="background-color:#C9151E;" xmlns="http://www.w3.org/2000/svg" viewBox="0 0 1280 480">

  <style>

   .starBackground {
   transform: scale(22);
   transform-origin: 50% 50%;
   }

   .starBackgroundGrey {
   transform: scale(22);
   transform-origin: 50% 50%;
   fill: #605E60;
   }

   .starOuter {
    opacity: 0;
   }

   .starInner {
    opacity: 0;
   }

   .starOuter:nth-of-type(2) {
    transform-origin: 50% 50%;
    -webkit-animation: starOuterScale 10s infinite ease-in;
    -webkit-animation-delay: -1s;
    fill: white;
   }

   .starOuter:nth-of-type(3) {
    transform-origin: 50% 50%;
    -webkit-animation: starOuterScale 10s infinite ease-in;
    -webkit-animation-delay: -3s;
    fill: white;
   }



   .starOuter:nth-of-type(4) {
    transform-origin: 50% 50%;
    -webkit-animation: starOuterScale 10s infinite ease-in;
    -webkit-animation-delay: -5s;
    fill: white;
   }


   .starOuter:nth-of-type(5) {
    transform-origin: 50% 50%;
    -webkit-animation: starOuterScale 10s infinite ease-in;
    -webkit-animation-delay: -7s;
    fill: white;
   }



   .starOuter:nth-of-type(6) {
    transform-origin: 50% 50%;
    -webkit-animation: starOuterScale 10s infinite ease-in;
    -webkit-animation-delay: -9s;
    fill: white;
   }


   .starOuter:nth-of-type(7) {
    transform-origin: 50% 50%;
    -webkit-animation: starOuterScale 10s infinite  ease-in;
    -webkit-animation-delay: -11s;
    fill: white;
   }



   .starOuter:nth-of-type(8) {
    transform-origin: 50% 50%;
    -webkit-animation: starOuterScale 10s infinite  ease-in;
    -webkit-animation-delay: -13s;
    fill: white;
   }


   .starInner:nth-of-type(2) {
    transform-origin: 50% 50%;
    -webkit-animation: starInnerScale 10s infinite ease-out;
    -webkit-animation-delay: -1s;
    fill: white;
   }


   .starInner:nth-of-type(3) {
    transform-origin: 50% 50%;
    -webkit-animation: starInnerScale 10s infinite ease-out;
    -webkit-animation-delay: -3s;
    fill: white;
   }



   .starInner:nth-of-type(4) {
    transform-origin: 50% 50%;
    -webkit-animation: starInnerScale 10s infinite ease-out;
    -webkit-animation-delay: -5s;
    fill: white;
   }


   .starInner:nth-of-type(5) {
    transform-origin: 50% 50%;
    -webkit-animation: starInnerScale 10s infinite ease-out;
    -webkit-animation-delay: -7s;
    fill: white;
   }



   .starInner:nth-of-type(6) {
    transform-origin: 50% 50%;
    -webkit-animation: starInnerScale 10s infinite ease-out;
    -webkit-animation-delay: -9s;
    fill: white;
   }


   .starInner:nth-of-type(7) {
    transform-origin: 50% 50%;
    -webkit-animation: starInnerScale 10s infinite  ease-out;
    -webkit-animation-delay: -11s;
    fill: white;
   }



   .starInner:nth-of-type(8) {
    transform-origin: 50% 50%;
    -webkit-animation: starInnerScale 10s infinite  ease-out;
    -webkit-animation-delay: -13s;
    fill: white;
   }


   @-webkit-keyframes starOuterScale {
    0% {
      opacity: 1;
      transform: scale(0);
    }
    100% {
      opacity: 1;
      transform: scale(25);
    }
   }

   @-webkit-keyframes starInnerScale {
    0% {
      opacity: 1;
      transform: scale(25);
    }
    100% {
      opacity: 1;
      transform: scale(0);
    }
   }

</style>

<clipPath id="starShape1">
    <path transform="translate(10,9)"  d="M1252.6,458.4l3.5-119,89-79.2L1233,220.1,1185.2,111l-72.8,94.2L993.8,217l67.1,98.4-25.5,116.3,114.3-33.4Z"/>
</clipPath>
<clipPath id="starShape2">
    <path transform="translate(10,9)"  d="M1033.6,318.4l3.5-119,89-79.2L1014,80.1,966.2-29,893.4,65.3,774.8,77,842,175.4,816.5,291.7l114.3-33.4Z"/>
</clipPath>
<clipPath id="starShape3">
    <path transform="translate(10,9)" d="M211.6,259.4l3.5-119,89-79.2L192,21.1,144.2-88,71.4,6.3-47.2,18,20,116.4-5.5,232.7l114.3-33.4Z"/>
</clipPath>
<clipPath id="starShape4">
    <path transform="translate(9,-26)" d="M1154.8,312.4l-81.7-86.7,7-118.9L972.4,157.7,861.5,114.4l15.1,118.1-75.5,92.1,117,22.1L982.4,447l57.2-104.5Z"/>
</clipPath>
<clipPath id="starShape5">
   <path transform="translate(0,20)" d="M-46.2,317.8,70.7,295l96.8,69.4L182,246.2l95.9-70.6-108-50.3-37.5-113L51.2,99.4l-119.1.8,57.8,104.1Z"/>
</clipPath>
<clipPath id="starShape6">
   <path transform="translate(27,7)" d="M219,266.1l88-80.3,118.8,8.9L376.7,86.2,421.9-24,303.5-10.8l-90.9-77-24,116.7L87.3,91.5l103.5,58.9Z"/>
</clipPath>
<clipPath id="starShape7">
   <path transform="translate(-10,-15)" d="M1409.8,107.9,1306,49.6,1277-66l-87.5,80.8L1070.7,6.6l49.8,108.2-44.5,110.5,118.3-13.9,91.3,76.5L1308.9,171Z"/>
</clipPath>
<clipPath id="starShape8">
    <path transform="translate(20,-10)" d="M278.4,507l60-102.9,116-27L375,288.2l10.1-118.7-109,48L166.4,171.3l12,118.5-77.9,90.1L216.9,405Z"/>
</clipPath>
<clipPath id="starShape9">
   <path transform="translate(13,-30)" d="M684.3,288.5l-78.5-89.6L617.1,80.3,507.6,127.3,398.3,79.9l10.8,118.6-78.8,89.3,116.1,26.4,60.6,102.6,61-102.3Z"/>
</clipPath>
<clipPath id="starShape10">
   <path transform="translate(30,8)" d="M688,305l85.6-82.8,119,5.4-52.3-107L882.2,9.1,764.3,25.8,671.2-48.5,650.6,68.8l-99.4,65.6,105.2,55.8Z"/>
</clipPath>
<clipPath id="starShape11">
  <path transform="translate(10,-30)" d="M943.8,370.3l-79.1-89,10.4-118.6L766,210.4,656.4,163.8,668,282.3l-78.2,89.9,116.3,25.5,61.3,102.1L827.7,397Z"/>
</clipPath>
<clipPath id="starShape12">
   <path transform="translate(0,25)" d="M915.5,130.2l113.7-35.5L1133,153,1134.4,34,1222-46.8,1109.2-84.9l-49.7-108.2L988.3-97.6,870-83.8l68.9,97.2Z"/>
</clipPath>
<clipPath id="starShape13">
   <path transform="translate(22,-5)" d="M584.9,198l71.3-95.4L774.5,89,705.8-8.3,729.4-125,615.7-89.7,512-148.3,510.3-29.2,422.6,51.4,535.4,89.7Z"/>
</clipPath>
<clipPath id="starShape14">
   <path transform="translate(10,10)" d="M253.6,81.2,360.3,134l34.9,113.9,83.2-85.2,119.1,2L542.1,59.1,580.8-53.5,463.4-33.4,368.2-105,351,12.8Z"/>
</clipPath>

  <g clip-path="url(#starShape1)">
    <path class="starBackground" d="M1184 301.81l.21-6.82 5.09-4.53-6.42-2.3-2.74-6.24-4.17 5.39-6.79.67 3.84 5.63-1.46 6.66 6.55-1.92z"/>
    <path class="starOuter" d="M1184.05 301.81l.2-6.81 5.1-4.53-6.42-2.3-2.74-6.24-4.17 5.39-6.79.67 3.84 5.63-1.46 6.66 6.55-1.91zm-9.59-8.46l-3.07-4.49 5.41-.54 3.33-4.3 2.18 5 5.12 1.83-4.07 3.61-.16 5.44-4.69-2.75-5.22 1.53z"/>
    <path class="starOuter" d="M1184.05 301.81l.2-6.81 5.1-4.53-6.42-2.3-2.74-6.24-4.17 5.39-6.79.67 3.84 5.63-1.46 6.66 6.55-1.91zm-9.59-8.46l-3.07-4.49 5.41-.54 3.33-4.3 2.18 5 5.12 1.83-4.07 3.61-.16 5.44-4.69-2.75-5.22 1.53z"/>
    <path class="starOuter" d="M1184.05 301.81l.2-6.81 5.1-4.53-6.42-2.3-2.74-6.24-4.17 5.39-6.79.67 3.84 5.63-1.46 6.66 6.55-1.91zm-9.59-8.46l-3.07-4.49 5.41-.54 3.33-4.3 2.18 5 5.12 1.83-4.07 3.61-.16 5.44-4.69-2.75-5.22 1.53z"/>
    <path class="starOuter" d="M1184.05 301.81l.2-6.81 5.1-4.53-6.42-2.3-2.74-6.24-4.17 5.39-6.79.67 3.84 5.63-1.46 6.66 6.55-1.91zm-9.59-8.46l-3.07-4.49 5.41-.54 3.33-4.3 2.18 5 5.12 1.83-4.07 3.61-.16 5.44-4.69-2.75-5.22 1.53z"/>
    <path class="starOuter" d="M1184.05 301.81l.2-6.81 5.1-4.53-6.42-2.3-2.74-6.24-4.17 5.39-6.79.67 3.84 5.63-1.46 6.66 6.55-1.91zm-9.59-8.46l-3.07-4.49 5.41-.54 3.33-4.3 2.18 5 5.12 1.83-4.07 3.61-.16 5.44-4.69-2.75-5.22 1.53z"/>
    <path class="starOuter" d="M1184.05 301.81l.2-6.81 5.1-4.53-6.42-2.3-2.74-6.24-4.17 5.39-6.79.67 3.84 5.63-1.46 6.66 6.55-1.91zm-9.59-8.46l-3.07-4.49 5.41-.54 3.33-4.3 2.18 5 5.12 1.83-4.07 3.61-.16 5.44-4.69-2.75-5.22 1.53z"/>
    <path class="starOuter" d="M1184.05 301.81l.2-6.81 5.1-4.53-6.42-2.3-2.74-6.24-4.17 5.39-6.79.67 3.84 5.63-1.46 6.66 6.55-1.91zm-9.59-8.46l-3.07-4.49 5.41-.54 3.33-4.3 2.18 5 5.12 1.83-4.07 3.61-.16 5.44-4.69-2.75-5.22 1.53z"/>
  </g>

  <g  clip-path="url(#starShape2)">
    <path class="starBackground" d="M965 161.81l.21-6.82 5.09-4.53-6.42-2.3-2.74-6.24-4.14 5.39-6.79.67 3.84 5.63-1.46 6.66 6.55-1.92z"/>
    <path class="starOuter" d="M965.05 161.81l.2-6.81 5.1-4.53-6.42-2.3-2.74-6.24-4.19 5.38-6.79.67 3.84 5.63-1.46 6.66 6.55-1.91zm-9.59-8.46l-3.07-4.49 5.41-.54 3.33-4.3 2.18 5 5.12 1.83-4.07 3.61-.16 5.44-4.69-2.75-5.22 1.53z"/>
    <path class="starOuter" d="M965.05 161.81l.2-6.81 5.1-4.53-6.42-2.3-2.74-6.24-4.19 5.38-6.79.67 3.84 5.63-1.46 6.66 6.55-1.91zm-9.59-8.46l-3.07-4.49 5.41-.54 3.33-4.3 2.18 5 5.12 1.83-4.07 3.61-.16 5.44-4.69-2.75-5.22 1.53z"/>
    <path class="starOuter" d="M965.05 161.81l.2-6.81 5.1-4.53-6.42-2.3-2.74-6.24-4.19 5.38-6.79.67 3.84 5.63-1.46 6.66 6.55-1.91zm-9.59-8.46l-3.07-4.49 5.41-.54 3.33-4.3 2.18 5 5.12 1.83-4.07 3.61-.16 5.44-4.69-2.75-5.22 1.53z"/>
    <path class="starOuter" d="M965.05 161.81l.2-6.81 5.1-4.53-6.42-2.3-2.74-6.24-4.19 5.38-6.79.67 3.84 5.63-1.46 6.66 6.55-1.91zm-9.59-8.46l-3.07-4.49 5.41-.54 3.33-4.3 2.18 5 5.12 1.83-4.07 3.61-.16 5.44-4.69-2.75-5.22 1.53z"/>
    <path class="starOuter" d="M965.05 161.81l.2-6.81 5.1-4.53-6.42-2.3-2.74-6.24-4.19 5.38-6.79.67 3.84 5.63-1.46 6.66 6.55-1.91zm-9.59-8.46l-3.07-4.49 5.41-.54 3.33-4.3 2.18 5 5.12 1.83-4.07 3.61-.16 5.44-4.69-2.75-5.22 1.53z"/>
    <path class="starOuter" d="M965.05 161.81l.2-6.81 5.1-4.53-6.42-2.3-2.74-6.24-4.19 5.38-6.79.67 3.84 5.63-1.46 6.66 6.55-1.91zm-9.59-8.46l-3.07-4.49 5.41-.54 3.33-4.3 2.18 5 5.12 1.83-4.07 3.61-.16 5.44-4.69-2.75-5.22 1.53z"/>
    <path class="starOuter" d="M965.05 161.81l.2-6.81 5.1-4.53-6.42-2.3-2.74-6.24-4.19 5.38-6.79.67 3.84 5.63-1.46 6.66 6.55-1.91zm-9.59-8.46l-3.07-4.49 5.41-.54 3.33-4.3 2.18 5 5.12 1.83-4.07 3.61-.16 5.44-4.69-2.75-5.22 1.53z"/>
</g>

  <g  clip-path="url(#starShape3)">
    <path class="starBackground" d="M143 102.81l.21-6.82 5.09-4.53-6.42-2.3-2.74-6.24-4.14 5.39-6.79.67 3.84 5.63-1.46 6.66 6.55-1.92z"/>
    <path class="starOuter" d="M143.05 102.81l.2-6.81 5.1-4.53-6.42-2.3-2.74-6.24-4.19 5.38-6.79.67 3.84 5.63-1.46 6.66 6.55-1.91zm-9.59-8.46l-3.07-4.49 5.41-.54 3.33-4.3 2.18 5 5.12 1.83-4.07 3.61-.16 5.44-4.69-2.75-5.22 1.53z"/>
    <path class="starOuter" d="M143.05 102.81l.2-6.81 5.1-4.53-6.42-2.3-2.74-6.24-4.19 5.38-6.79.67 3.84 5.63-1.46 6.66 6.55-1.91zm-9.59-8.46l-3.07-4.49 5.41-.54 3.33-4.3 2.18 5 5.12 1.83-4.07 3.61-.16 5.44-4.69-2.75-5.22 1.53z"/>
    <path class="starOuter" d="M143.05 102.81l.2-6.81 5.1-4.53-6.42-2.3-2.74-6.24-4.19 5.38-6.79.67 3.84 5.63-1.46 6.66 6.55-1.91zm-9.59-8.46l-3.07-4.49 5.41-.54 3.33-4.3 2.18 5 5.12 1.83-4.07 3.61-.16 5.44-4.69-2.75-5.22 1.53z"/>
    <path class="starOuter" d="M143.05 102.81l.2-6.81 5.1-4.53-6.42-2.3-2.74-6.24-4.19 5.38-6.79.67 3.84 5.63-1.46 6.66 6.55-1.91zm-9.59-8.46l-3.07-4.49 5.41-.54 3.33-4.3 2.18 5 5.12 1.83-4.07 3.61-.16 5.44-4.69-2.75-5.22 1.53z"/>
    <path class="starOuter" d="M143.05 102.81l.2-6.81 5.1-4.53-6.42-2.3-2.74-6.24-4.19 5.38-6.79.67 3.84 5.63-1.46 6.66 6.55-1.91zm-9.59-8.46l-3.07-4.49 5.41-.54 3.33-4.3 2.18 5 5.12 1.83-4.07 3.61-.16 5.44-4.69-2.75-5.22 1.53z"/>
    <path class="starOuter" d="M143.05 102.81l.2-6.81 5.1-4.53-6.42-2.3-2.74-6.24-4.19 5.38-6.79.67 3.84 5.63-1.46 6.66 6.55-1.91zm-9.59-8.46l-3.07-4.49 5.41-.54 3.33-4.3 2.18 5 5.12 1.83-4.07 3.61-.16 5.44-4.69-2.75-5.22 1.53z"/>
    <path class="starOuter" d="M143.05 102.81l.2-6.81 5.1-4.53-6.42-2.3-2.74-6.24-4.19 5.38-6.79.67 3.84 5.63-1.46 6.66 6.55-1.91zm-9.59-8.46l-3.07-4.49 5.41-.54 3.33-4.3 2.18 5 5.12 1.83-4.07 3.61-.16 5.44-4.69-2.75-5.22 1.53z"/>
</g>

<g  clip-path="url(#starShape4)">
  <path class="starBackground" d="M995.56 250.08l-4.67-5 .4-6.8-6.16 2.91-6.35-2.48.87 6.76-4.32 5.27L982 252l3.68 5.74 3.28-6z"/>
  <path class="starOuter" d="M995.56 250.08l-4.68-5 .4-6.81-6.16 2.92-6.35-2.48.87 6.76-4.32 5.27L982 252l3.68 5.74 3.28-6zm-12.76.8l-5.34-1 3.45-4.21-.69-5.4 5.07 2 4.92-2.33-.32 5.43 3.73 4-5.26 1.38-2.61 4.77z"/>
  <path class="starOuter" d="M995.56 250.08l-4.68-5 .4-6.81-6.16 2.92-6.35-2.48.87 6.76-4.32 5.27L982 252l3.68 5.74 3.28-6zm-12.76.8l-5.34-1 3.45-4.21-.69-5.4 5.07 2 4.92-2.33-.32 5.43 3.73 4-5.26 1.38-2.61 4.77z"/>
  <path class="starOuter" d="M995.56 250.08l-4.68-5 .4-6.81-6.16 2.92-6.35-2.48.87 6.76-4.32 5.27L982 252l3.68 5.74 3.28-6zm-12.76.8l-5.34-1 3.45-4.21-.69-5.4 5.07 2 4.92-2.33-.32 5.43 3.73 4-5.26 1.38-2.61 4.77z"/>
  <path class="starOuter" d="M995.56 250.08l-4.68-5 .4-6.81-6.16 2.92-6.35-2.48.87 6.76-4.32 5.27L982 252l3.68 5.74 3.28-6zm-12.76.8l-5.34-1 3.45-4.21-.69-5.4 5.07 2 4.92-2.33-.32 5.43 3.73 4-5.26 1.38-2.61 4.77z"/>
  <path class="starOuter" d="M995.56 250.08l-4.68-5 .4-6.81-6.16 2.92-6.35-2.48.87 6.76-4.32 5.27L982 252l3.68 5.74 3.28-6zm-12.76.8l-5.34-1 3.45-4.21-.69-5.4 5.07 2 4.92-2.33-.32 5.43 3.73 4-5.26 1.38-2.61 4.77z"/>
  <path class="starOuter" d="M995.56 250.08l-4.68-5 .4-6.81-6.16 2.92-6.35-2.48.87 6.76-4.32 5.27L982 252l3.68 5.74 3.28-6zm-12.76.8l-5.34-1 3.45-4.21-.69-5.4 5.07 2 4.92-2.33-.32 5.43 3.73 4-5.26 1.38-2.61 4.77z"/>
  <path class="starOuter" d="M995.56 250.08l-4.68-5 .4-6.81-6.16 2.92-6.35-2.48.87 6.76-4.32 5.27L982 252l3.68 5.74 3.28-6zm-12.76.8l-5.34-1 3.45-4.21-.69-5.4 5.07 2 4.92-2.33-.32 5.43 3.73 4-5.26 1.38-2.61 4.77z"/>
</g>

<g clip-path="url(#starShape5)">
  <path class="starBackgroundGrey" d="M91.53 216.44l6.69-1.3 5.54 4 .83-6.77 5.49-4-6.18-2.88-2.15-6.47-4.65 5h-6.82l3.31 6z"/>
  <path class="starInner" d="M91.53 216.45l6.69-1.3 5.54 4 .83-6.77 5.49-4-6.18-2.88-2.15-6.5-4.65 5h-6.82l3.31 6zm6.14-11.22l3.71-4 1.71 5.16 4.93 2.3-4.38 3.23-.66 5.4-4.42-3.17-5.34 1 1.65-5.15-2.64-4.76z"/>
  <path class="starInner" d="M91.53 216.45l6.69-1.3 5.54 4 .83-6.77 5.49-4-6.18-2.88-2.15-6.5-4.65 5h-6.82l3.31 6zm6.14-11.22l3.71-4 1.71 5.16 4.93 2.3-4.38 3.23-.66 5.4-4.42-3.17-5.34 1 1.65-5.15-2.64-4.76z"/>
  <path class="starInner" d="M91.53 216.45l6.69-1.3 5.54 4 .83-6.77 5.49-4-6.18-2.88-2.15-6.5-4.65 5h-6.82l3.31 6zm6.14-11.22l3.71-4 1.71 5.16 4.93 2.3-4.38 3.23-.66 5.4-4.42-3.17-5.34 1 1.65-5.15-2.64-4.76z"/>
  <path class="starInner" d="M91.53 216.45l6.69-1.3 5.54 4 .83-6.77 5.49-4-6.18-2.88-2.15-6.5-4.65 5h-6.82l3.31 6zm6.14-11.22l3.71-4 1.71 5.16 4.93 2.3-4.38 3.23-.66 5.4-4.42-3.17-5.34 1 1.65-5.15-2.64-4.76z"/>
  <path class="starInner" d="M91.53 216.45l6.69-1.3 5.54 4 .83-6.77 5.49-4-6.18-2.88-2.15-6.5-4.65 5h-6.82l3.31 6zm6.14-11.22l3.71-4 1.71 5.16 4.93 2.3-4.38 3.23-.66 5.4-4.42-3.17-5.34 1 1.65-5.15-2.64-4.76z"/>
  <path class="starInner" d="M91.53 216.45l6.69-1.3 5.54 4 .83-6.77 5.49-4-6.18-2.88-2.15-6.5-4.65 5h-6.82l3.31 6zm6.14-11.22l3.71-4 1.71 5.16 4.93 2.3-4.38 3.23-.66 5.4-4.42-3.17-5.34 1 1.65-5.15-2.64-4.76z"/>
  <path class="starInner" d="M91.53 216.45l6.69-1.3 5.54 4 .83-6.77 5.49-4-6.18-2.88-2.15-6.5-4.65 5h-6.82l3.31 6zm6.14-11.22l3.71-4 1.71 5.16 4.93 2.3-4.38 3.23-.66 5.4-4.42-3.17-5.34 1 1.65-5.15-2.64-4.76z"/>
</g>

<g clip-path="url(#starShape6)">
  <path class="starBackground" d="M283.95 107.9l5-4.59 6.8.51L293 97.6l2.58-6.31-6.78.76-5.2-4.41-1.37 6.68-5.8 3.58 5.93 3.38z"/>
  <path class="starOuter" d="M284 107.9l5-4.59 6.8.51-2.8-6.21 2.59-6.31-6.78.75-5.2-4.41-1.37 6.68-5.8 3.58 5.93 3.37zm-.59-12.78l1.1-5.33 4.15 3.52 5.41-.6-2.06 5 2.25 5-5.42-.41-4 3.66-1.29-5.28-4.82-2.68z"/>
  <path class="starOuter" d="M284 107.9l5-4.59 6.8.51-2.8-6.21 2.59-6.31-6.78.75-5.2-4.41-1.37 6.68-5.8 3.58 5.93 3.37zm-.59-12.78l1.1-5.33 4.15 3.52 5.41-.6-2.06 5 2.25 5-5.42-.41-4 3.66-1.29-5.28-4.82-2.68z"/>
  <path class="starOuter" d="M284 107.9l5-4.59 6.8.51-2.8-6.21 2.59-6.31-6.78.75-5.2-4.41-1.37 6.68-5.8 3.58 5.93 3.37zm-.59-12.78l1.1-5.33 4.15 3.52 5.41-.6-2.06 5 2.25 5-5.42-.41-4 3.66-1.29-5.28-4.82-2.68z"/>
  <path class="starOuter" d="M284 107.9l5-4.59 6.8.51-2.8-6.21 2.59-6.31-6.78.75-5.2-4.41-1.37 6.68-5.8 3.58 5.93 3.37zm-.59-12.78l1.1-5.33 4.15 3.52 5.41-.6-2.06 5 2.25 5-5.42-.41-4 3.66-1.29-5.28-4.82-2.68z"/>
  <path class="starOuter" d="M284 107.9l5-4.59 6.8.51-2.8-6.21 2.59-6.31-6.78.75-5.2-4.41-1.37 6.68-5.8 3.58 5.93 3.37zm-.59-12.78l1.1-5.33 4.15 3.52 5.41-.6-2.06 5 2.25 5-5.42-.41-4 3.66-1.29-5.28-4.82-2.68z"/>
  <path class="starOuter" d="M284 107.9l5-4.59 6.8.51-2.8-6.21 2.59-6.31-6.78.75-5.2-4.41-1.37 6.68-5.8 3.58 5.93 3.37zm-.59-12.78l1.1-5.33 4.15 3.52 5.41-.6-2.06 5 2.25 5-5.42-.41-4 3.66-1.29-5.28-4.82-2.68z"/>
  <path class="starOuter" d="M284 107.9l5-4.59 6.8.51-2.8-6.21 2.59-6.31-6.78.75-5.2-4.41-1.37 6.68-5.8 3.58 5.93 3.37zm-.59-12.78l1.1-5.33 4.15 3.52 5.41-.6-2.06 5 2.25 5-5.42-.41-4 3.66-1.29-5.28-4.82-2.68z"/>
</g>

  <g clip-path="url(#starShape7)">
    <path class="starBackgroundGrey" d="M1239.25 96l-5.94-3.34-1.66-6.61-5 4.62-6.8-.47 2.85 6.19-2.55 6.32 6.77-.8 5.23 4.38 1.34-6.69z"/>
    <path class="starInner" d="M1239.25 96l-5.94-3.34-1.65-6.62-5 4.63-6.8-.47 2.85 6.2-2.55 6.33 6.77-.8 5.23 4.38 1.34-6.69zm-11.94 4.58l-5.4.64 2-5-2.27-4.94 5.43.37 4-3.69 1.32 5.28 4.74 2.66-4.61 2.89-1.07 5.33z"/>
    <path class="starInner" d="M1239.25 96l-5.94-3.34-1.65-6.62-5 4.63-6.8-.47 2.85 6.2-2.55 6.33 6.77-.8 5.23 4.38 1.34-6.69zm-11.94 4.58l-5.4.64 2-5-2.27-4.94 5.43.37 4-3.69 1.32 5.28 4.74 2.66-4.61 2.89-1.07 5.33z"/>
    <path class="starInner" d="M1239.25 96l-5.94-3.34-1.65-6.62-5 4.63-6.8-.47 2.85 6.2-2.55 6.33 6.77-.8 5.23 4.38 1.34-6.69zm-11.94 4.58l-5.4.64 2-5-2.27-4.94 5.43.37 4-3.69 1.32 5.28 4.74 2.66-4.61 2.89-1.07 5.33z"/>
    <path class="starInner" d="M1239.25 96l-5.94-3.34-1.65-6.62-5 4.63-6.8-.47 2.85 6.2-2.55 6.33 6.77-.8 5.23 4.38 1.34-6.69zm-11.94 4.58l-5.4.64 2-5-2.27-4.94 5.43.37 4-3.69 1.32 5.28 4.74 2.66-4.61 2.89-1.07 5.33z"/>
    <path class="starInner" d="M1239.25 96l-5.94-3.34-1.65-6.62-5 4.63-6.8-.47 2.85 6.2-2.55 6.33 6.77-.8 5.23 4.38 1.34-6.69zm-11.94 4.58l-5.4.64 2-5-2.27-4.94 5.43.37 4-3.69 1.32 5.28 4.74 2.66-4.61 2.89-1.07 5.33z"/>
    <path class="starInner" d="M1239.25 96l-5.94-3.34-1.65-6.62-5 4.63-6.8-.47 2.85 6.2-2.55 6.33 6.77-.8 5.23 4.38 1.34-6.69zm-11.94 4.58l-5.4.64 2-5-2.27-4.94 5.43.37 4-3.69 1.32 5.28 4.74 2.66-4.61 2.89-1.07 5.33z"/>
    <path class="starInner" d="M1239.25 96l-5.94-3.34-1.65-6.62-5 4.63-6.8-.47 2.85 6.2-2.55 6.33 6.77-.8 5.23 4.38 1.34-6.69zm-11.94 4.58l-5.4.64 2-5-2.27-4.94 5.43.37 4-3.69 1.32 5.28 4.74 2.66-4.61 2.89-1.07 5.33z"/>
  </g>

  <g clip-path="url(#starShape8)">
    <path class="starBackgroundGrey" d="M293 336.64l3.44-5.89 6.64-1.55-4.54-5.08.58-6.79-6.24 2.75-6.28-2.65.69 6.78-4.46 5.16 6.67 1.45z"/>
    <path class="starInner" d="M293 336.64l3.43-5.89 6.64-1.55-4.54-5.09.58-6.79-6.24 2.75-6.28-2.65.69 6.78-4.46 5.15 6.67 1.44zm-4.39-12l-.55-5.41 5 2.11 5-2.19-.46 5.42 3.62 4.05-5.3 1.23-2.74 4.7-2.81-4.66-5.32-1.15z"/>
    <path class="starInner" d="M293 336.64l3.43-5.89 6.64-1.55-4.54-5.09.58-6.79-6.24 2.75-6.28-2.65.69 6.78-4.46 5.15 6.67 1.44zm-4.39-12l-.55-5.41 5 2.11 5-2.19-.46 5.42 3.62 4.05-5.3 1.23-2.74 4.7-2.81-4.66-5.32-1.15z"/>
    <path class="starInner" d="M293 336.64l3.43-5.89 6.64-1.55-4.54-5.09.58-6.79-6.24 2.75-6.28-2.65.69 6.78-4.46 5.15 6.67 1.44zm-4.39-12l-.55-5.41 5 2.11 5-2.19-.46 5.42 3.62 4.05-5.3 1.23-2.74 4.7-2.81-4.66-5.32-1.15z"/>
    <path class="starInner" d="M293 336.64l3.43-5.89 6.64-1.55-4.54-5.09.58-6.79-6.24 2.75-6.28-2.65.69 6.78-4.46 5.15 6.67 1.44zm-4.39-12l-.55-5.41 5 2.11 5-2.19-.46 5.42 3.62 4.05-5.3 1.23-2.74 4.7-2.81-4.66-5.32-1.15z"/>
    <path class="starInner" d="M293 336.64l3.43-5.89 6.64-1.55-4.54-5.09.58-6.79-6.24 2.75-6.28-2.65.69 6.78-4.46 5.15 6.67 1.44zm-4.39-12l-.55-5.41 5 2.11 5-2.19-.46 5.42 3.62 4.05-5.3 1.23-2.74 4.7-2.81-4.66-5.32-1.15z"/>
    <path class="starInner" d="M293 336.64l3.43-5.89 6.64-1.55-4.54-5.09.58-6.79-6.24 2.75-6.28-2.65.69 6.78-4.46 5.15 6.67 1.44zm-4.39-12l-.55-5.41 5 2.11 5-2.19-.46 5.42 3.62 4.05-5.3 1.23-2.74 4.7-2.81-4.66-5.32-1.15z"/>
    <path class="starInner" d="M293 336.64l3.43-5.89 6.64-1.55-4.54-5.09.58-6.79-6.24 2.75-6.28-2.65.69 6.78-4.46 5.15 6.67 1.44zm-4.39-12l-.55-5.41 5 2.11 5-2.19-.46 5.42 3.62 4.05-5.3 1.23-2.74 4.7-2.81-4.66-5.32-1.15z"/>
  </g>

  <g clip-path="url(#starShape9)">
    <path class="starBackground" d="M527.41 220.43l-4.49-5.13.64-6.78-6.27 2.69-6.29-2.72.62 6.79-4.51 5.11 6.65 1.51 3.47 5.87 3.49-5.87z"/>
    <path class="starOuter" d="M527.41 220.43l-4.49-5.13.65-6.79-6.27 2.69-6.3-2.71.62 6.79-4.51 5.11 6.65 1.51 3.47 5.87 3.49-5.86zm-12.78.34l-5.3-1.2 3.6-4.08-.49-5.42 5 2.16 5-2.15-.52 5.41 3.58 4.09-5.31 1.18-2.78 4.67z"/>
    <path class="starOuter" d="M527.41 220.43l-4.49-5.13.65-6.79-6.27 2.69-6.3-2.71.62 6.79-4.51 5.11 6.65 1.51 3.47 5.87 3.49-5.86zm-12.78.34l-5.3-1.2 3.6-4.08-.49-5.42 5 2.16 5-2.15-.52 5.41 3.58 4.09-5.31 1.18-2.78 4.67z"/>
    <path class="starOuter" d="M527.41 220.43l-4.49-5.13.65-6.79-6.27 2.69-6.3-2.71.62 6.79-4.51 5.11 6.65 1.51 3.47 5.87 3.49-5.86zm-12.78.34l-5.3-1.2 3.6-4.08-.49-5.42 5 2.16 5-2.15-.52 5.41 3.58 4.09-5.31 1.18-2.78 4.67z"/>
    <path class="starOuter" d="M527.41 220.43l-4.49-5.13.65-6.79-6.27 2.69-6.3-2.71.62 6.79-4.51 5.11 6.65 1.51 3.47 5.87 3.49-5.86zm-12.78.34l-5.3-1.2 3.6-4.08-.49-5.42 5 2.16 5-2.15-.52 5.41 3.58 4.09-5.31 1.18-2.78 4.67z"/>
    <path class="starOuter" d="M527.41 220.43l-4.49-5.13.65-6.79-6.27 2.69-6.3-2.71.62 6.79-4.51 5.11 6.65 1.51 3.47 5.87 3.49-5.86zm-12.78.34l-5.3-1.2 3.6-4.08-.49-5.42 5 2.16 5-2.15-.52 5.41 3.58 4.09-5.31 1.18-2.78 4.67z"/>
    <path class="starOuter" d="M527.41 220.43l-4.49-5.13.65-6.79-6.27 2.69-6.3-2.71.62 6.79-4.51 5.11 6.65 1.51 3.47 5.87 3.49-5.86zm-12.78.34l-5.3-1.2 3.6-4.08-.49-5.42 5 2.16 5-2.15-.52 5.41 3.58 4.09-5.31 1.18-2.78 4.67z"/>
    <path class="starOuter" d="M527.41 220.43l-4.49-5.13.65-6.79-6.27 2.69-6.3-2.71.62 6.79-4.51 5.11 6.65 1.51 3.47 5.87 3.49-5.86zm-12.78.34l-5.3-1.2 3.6-4.08-.49-5.42 5 2.16 5-2.15-.52 5.41 3.58 4.09-5.31 1.18-2.78 4.67z"/>
  </g>

  <g clip-path="url(#starShape10)">
    <path class="starBackground" d="M748.23 145l4.9-4.74 6.81.31-3-6.12 2.39-6.38-6.75 1-5.33-4.26-1.18 6.72-5.69 3.75 6 3.2z"/>
    <path class="starOuter" d="M748.23 145l4.9-4.74 6.81.31-3-6.13 2.4-6.38-6.75 1-5.33-4.26-1.18 6.72-5.69 3.75 6 3.2zm-1-12.75l.94-5.36 4.25 3.39 5.39-.76-1.91 5.09 2.39 4.89-5.43-.25L749 143l-1.45-5.24-4.81-2.55z"/>
    <path class="starOuter" d="M748.23 145l4.9-4.74 6.81.31-3-6.13 2.4-6.38-6.75 1-5.33-4.26-1.18 6.72-5.69 3.75 6 3.2zm-1-12.75l.94-5.36 4.25 3.39 5.39-.76-1.91 5.09 2.39 4.89-5.43-.25L749 143l-1.45-5.24-4.81-2.55z"/>
    <path class="starOuter" d="M748.23 145l4.9-4.74 6.81.31-3-6.13 2.4-6.38-6.75 1-5.33-4.26-1.18 6.72-5.69 3.75 6 3.2zm-1-12.75l.94-5.36 4.25 3.39 5.39-.76-1.91 5.09 2.39 4.89-5.43-.25L749 143l-1.45-5.24-4.81-2.55z"/>
    <path class="starOuter" d="M748.23 145l4.9-4.74 6.81.31-3-6.13 2.4-6.38-6.75 1-5.33-4.26-1.18 6.72-5.69 3.75 6 3.2zm-1-12.75l.94-5.36 4.25 3.39 5.39-.76-1.91 5.09 2.39 4.89-5.43-.25L749 143l-1.45-5.24-4.81-2.55z"/>
    <path class="starOuter" d="M748.23 145l4.9-4.74 6.81.31-3-6.13 2.4-6.38-6.75 1-5.33-4.26-1.18 6.72-5.69 3.75 6 3.2zm-1-12.75l.94-5.36 4.25 3.39 5.39-.76-1.91 5.09 2.39 4.89-5.43-.25L749 143l-1.45-5.24-4.81-2.55z"/>
    <path class="starOuter" d="M748.23 145l4.9-4.74 6.81.31-3-6.13 2.4-6.38-6.75 1-5.33-4.26-1.18 6.72-5.69 3.75 6 3.2zm-1-12.75l.94-5.36 4.25 3.39 5.39-.76-1.91 5.09 2.39 4.89-5.43-.25L749 143l-1.45-5.24-4.81-2.55z"/>
    <path class="starOuter" d="M748.23 145l4.9-4.74 6.81.31-3-6.13 2.4-6.38-6.75 1-5.33-4.26-1.18 6.72-5.69 3.75 6 3.2zm-1-12.75l.94-5.36 4.25 3.39 5.39-.76-1.91 5.09 2.39 4.89-5.43-.25L749 143l-1.45-5.24-4.81-2.55z"/>
  </g>

  <g clip-path="url(#starShape11)">
    <path class="starBackgroundGrey" d="M786.44 303.36l-4.53-5.1.59-6.79-6.25 2.73-6.25-2.66.67 6.79-4.48 5.14 6.66 1.46 3.51 5.85 3.45-5.89z"/>
    <path class="starInner" d="M786.44 303.36l-4.53-5.1.6-6.79-6.25 2.74-6.26-2.67.67 6.79-4.48 5.15 6.66 1.46 3.51 5.85 3.45-5.88zm-12.78.43l-5.31-1.16 3.57-4.1-.53-5.41 5 2.13 5-2.18-.48 5.42 3.61 4.06-5.3 1.22-2.75 4.69z"/>
    <path class="starInner" d="M786.44 303.36l-4.53-5.1.6-6.79-6.25 2.74-6.26-2.67.67 6.79-4.48 5.15 6.66 1.46 3.51 5.85 3.45-5.88zm-12.78.43l-5.31-1.16 3.57-4.1-.53-5.41 5 2.13 5-2.18-.48 5.42 3.61 4.06-5.3 1.22-2.75 4.69z"/>
    <path class="starInner" d="M786.44 303.36l-4.53-5.1.6-6.79-6.25 2.74-6.26-2.67.67 6.79-4.48 5.15 6.66 1.46 3.51 5.85 3.45-5.88zm-12.78.43l-5.31-1.16 3.57-4.1-.53-5.41 5 2.13 5-2.18-.48 5.42 3.61 4.06-5.3 1.22-2.75 4.69z"/>
    <path class="starInner" d="M786.44 303.36l-4.53-5.1.6-6.79-6.25 2.74-6.26-2.67.67 6.79-4.48 5.15 6.66 1.46 3.51 5.85 3.45-5.88zm-12.78.43l-5.31-1.16 3.57-4.1-.53-5.41 5 2.13 5-2.18-.48 5.42 3.61 4.06-5.3 1.22-2.75 4.69z"/>
    <path class="starInner" d="M786.44 303.36l-4.53-5.1.6-6.79-6.25 2.74-6.26-2.67.67 6.79-4.48 5.15 6.66 1.46 3.51 5.85 3.45-5.88zm-12.78.43l-5.31-1.16 3.57-4.1-.53-5.41 5 2.13 5-2.18-.48 5.42 3.61 4.06-5.3 1.22-2.75 4.69z"/>
    <path class="starInner" d="M786.44 303.36l-4.53-5.1.6-6.79-6.25 2.74-6.26-2.67.67 6.79-4.48 5.15 6.66 1.46 3.51 5.85 3.45-5.88zm-12.78.43l-5.31-1.16 3.57-4.1-.53-5.41 5 2.13 5-2.18-.48 5.42 3.61 4.06-5.3 1.22-2.75 4.69z"/>
    <path class="starInner" d="M786.44 303.36l-4.53-5.1.6-6.79-6.25 2.74-6.26-2.67.67 6.79-4.48 5.15 6.66 1.46 3.51 5.85 3.45-5.88zm-12.78.43l-5.31-1.16 3.57-4.1-.53-5.41 5 2.13 5-2.18-.48 5.42 3.61 4.06-5.3 1.22-2.75 4.69z"/>
  </g>

  <g clip-path="url(#starShape12)">
    <path class="starBackground" d="M1041.25 14.33l6.51-2 5.94 3.34.08-6.82 5-4.63-6.44-2.22-2.85-6.2-4.07 5.47-6.77.79 3.95 5.57z"/>
    <path class="starOuter" d="M1041.26 14.33l6.51-2 5.94 3.34.08-6.82 5-4.62-6.45-2.23-2.85-6.2-4.07 5.47-6.77.79 3.94 5.57zm4.87-11.83l3.25-4.36 2.27 4.94 5.15 1.74-4 3.69-.06 5.44-4.74-2.66-5.19 1.62 1.07-5.33-3.15-4.44z"/>
    <path class="starOuter" d="M1041.26 14.33l6.51-2 5.94 3.34.08-6.82 5-4.62-6.45-2.23-2.85-6.2-4.07 5.47-6.77.79 3.94 5.57zm4.87-11.83l3.25-4.36 2.27 4.94 5.15 1.74-4 3.69-.06 5.44-4.74-2.66-5.19 1.62 1.07-5.33-3.15-4.44z"/>
    <path class="starOuter" d="M1041.26 14.33l6.51-2 5.94 3.34.08-6.82 5-4.62-6.45-2.23-2.85-6.2-4.07 5.47-6.77.79 3.94 5.57zm4.87-11.83l3.25-4.36 2.27 4.94 5.15 1.74-4 3.69-.06 5.44-4.74-2.66-5.19 1.62 1.07-5.33-3.15-4.44z"/>
    <path class="starOuter" d="M1041.26 14.33l6.51-2 5.94 3.34.08-6.82 5-4.62-6.45-2.23-2.85-6.2-4.07 5.47-6.77.79 3.94 5.57zm4.87-11.83l3.25-4.36 2.27 4.94 5.15 1.74-4 3.69-.06 5.44-4.74-2.66-5.19 1.62 1.07-5.33-3.15-4.44z"/>
    <path class="starOuter" d="M1041.26 14.33l6.51-2 5.94 3.34.08-6.82 5-4.62-6.45-2.23-2.85-6.2-4.07 5.47-6.77.79 3.94 5.57zm4.87-11.83l3.25-4.36 2.27 4.94 5.15 1.74-4 3.69-.06 5.44-4.74-2.66-5.19 1.62 1.07-5.33-3.15-4.44z"/>
    <path class="starOuter" d="M1041.26 14.33l6.51-2 5.94 3.34.08-6.82 5-4.62-6.45-2.23-2.85-6.2-4.07 5.47-6.77.79 3.94 5.57zm4.87-11.83l3.25-4.36 2.27 4.94 5.15 1.74-4 3.69-.06 5.44-4.74-2.66-5.19 1.62 1.07-5.33-3.15-4.44z"/>
    <path class="starOuter" d="M1041.26 14.33l6.51-2 5.94 3.34.08-6.82 5-4.62-6.45-2.23-2.85-6.2-4.07 5.47-6.77.79 3.94 5.57zm4.87-11.83l3.25-4.36 2.27 4.94 5.15 1.74-4 3.69-.06 5.44-4.74-2.66-5.19 1.62 1.07-5.33-3.15-4.44z"/>
</g>

  <g clip-path="url(#starShape13)">
    <path class="starBackground" d="M618.82 30.47l4.09-5.47 6.77-.78-3.93-5.57L627.1 12l-6.51 2-5.94-3.35-.09 6.82-5 4.61 6.46 2.2z"/>
    <path class="starOuter" d="M618.83 30.47l4.08-5.47 6.77-.78-3.93-5.57L627.1 12l-6.51 2-5.94-3.35-.09 6.82-5 4.61 6.46 2.2zm-3-12.44l.07-5.44 4.74 2.67 5.2-1.61-1.07 5.35 3.14 4.44-5.4.62-3.26 4.36-2.25-4.96-5.15-1.75z"/>
    <path class="starOuter" d="M618.83 30.47l4.08-5.47 6.77-.78-3.93-5.57L627.1 12l-6.51 2-5.94-3.35-.09 6.82-5 4.61 6.46 2.2zm-3-12.44l.07-5.44 4.74 2.67 5.2-1.61-1.07 5.35 3.14 4.44-5.4.62-3.26 4.36-2.25-4.96-5.15-1.75z"/>
    <path class="starOuter" d="M618.83 30.47l4.08-5.47 6.77-.78-3.93-5.57L627.1 12l-6.51 2-5.94-3.35-.09 6.82-5 4.61 6.46 2.2zm-3-12.44l.07-5.44 4.74 2.67 5.2-1.61-1.07 5.35 3.14 4.44-5.4.62-3.26 4.36-2.25-4.96-5.15-1.75z"/>
    <path class="starOuter" d="M618.83 30.47l4.08-5.47 6.77-.78-3.93-5.57L627.1 12l-6.51 2-5.94-3.35-.09 6.82-5 4.61 6.46 2.2zm-3-12.44l.07-5.44 4.74 2.67 5.2-1.61-1.07 5.35 3.14 4.44-5.4.62-3.26 4.36-2.25-4.96-5.15-1.75z"/>
    <path class="starOuter" d="M618.83 30.47l4.08-5.47 6.77-.78-3.93-5.57L627.1 12l-6.51 2-5.94-3.35-.09 6.82-5 4.61 6.46 2.2zm-3-12.44l.07-5.44 4.74 2.67 5.2-1.61-1.07 5.35 3.14 4.44-5.4.62-3.26 4.36-2.25-4.96-5.15-1.75z"/>
    <path class="starOuter" d="M618.83 30.47l4.08-5.47 6.77-.78-3.93-5.57L627.1 12l-6.51 2-5.94-3.35-.09 6.82-5 4.61 6.46 2.2zm-3-12.44l.07-5.44 4.74 2.67 5.2-1.61-1.07 5.35 3.14 4.44-5.4.62-3.26 4.36-2.25-4.96-5.15-1.75z"/>
    <path class="starOuter" d="M618.83 30.47l4.08-5.47 6.77-.78-3.93-5.57L627.1 12l-6.51 2-5.94-3.35-.09 6.82-5 4.61 6.46 2.2zm-3-12.44l.07-5.44 4.74 2.67 5.2-1.61-1.07 5.35 3.14 4.44-5.4.62-3.26 4.36-2.25-4.96-5.15-1.75z"/>
  </g>

  <g clip-path="url(#starShape14)">
    <path class="starBackgroundGrey" d="M424.51 84.12l6.11 3 2 6.51 4.76-4.88 6.82.11-3.17-6 2.22-6.45-6.72 1.15-5.45-4.1-1 6.76z"/>
    <path class="starInner" d="M424.51 84.12l6.11 3 2 6.52 4.76-4.88 6.82.11-3.17-6 2.21-6.45-6.72 1.15-5.45-4.1-1 6.75zm11.68-5.2l5.36-.92-1.77 5.15 2.53 4.85-5.44-.09-3.8 3.89-1.59-5.2-4.88-2.41 4.46-3.19.78-5.38z"/>
    <path class="starInner" d="M424.51 84.12l6.11 3 2 6.52 4.76-4.88 6.82.11-3.17-6 2.21-6.45-6.72 1.15-5.45-4.1-1 6.75zm11.68-5.2l5.36-.92-1.77 5.15 2.53 4.85-5.44-.09-3.8 3.89-1.59-5.2-4.88-2.41 4.46-3.19.78-5.38z"/>
    <path class="starInner" d="M424.51 84.12l6.11 3 2 6.52 4.76-4.88 6.82.11-3.17-6 2.21-6.45-6.72 1.15-5.45-4.1-1 6.75zm11.68-5.2l5.36-.92-1.77 5.15 2.53 4.85-5.44-.09-3.8 3.89-1.59-5.2-4.88-2.41 4.46-3.19.78-5.38z"/>
    <path class="starInner" d="M424.51 84.12l6.11 3 2 6.52 4.76-4.88 6.82.11-3.17-6 2.21-6.45-6.72 1.15-5.45-4.1-1 6.75zm11.68-5.2l5.36-.92-1.77 5.15 2.53 4.85-5.44-.09-3.8 3.89-1.59-5.2-4.88-2.41 4.46-3.19.78-5.38z"/>
    <path class="starInner" d="M424.51 84.12l6.11 3 2 6.52 4.76-4.88 6.82.11-3.17-6 2.21-6.45-6.72 1.15-5.45-4.1-1 6.75zm11.68-5.2l5.36-.92-1.77 5.15 2.53 4.85-5.44-.09-3.8 3.89-1.59-5.2-4.88-2.41 4.46-3.19.78-5.38z"/>
    <path class="starInner" d="M424.51 84.12l6.11 3 2 6.52 4.76-4.88 6.82.11-3.17-6 2.21-6.45-6.72 1.15-5.45-4.1-1 6.75zm11.68-5.2l5.36-.92-1.77 5.15 2.53 4.85-5.44-.09-3.8 3.89-1.59-5.2-4.88-2.41 4.46-3.19.78-5.38z"/>
    <path class="starInner" d="M424.51 84.12l6.11 3 2 6.52 4.76-4.88 6.82.11-3.17-6 2.21-6.45-6.72 1.15-5.45-4.1-1 6.75zm11.68-5.2l5.36-.92-1.77 5.15 2.53 4.85-5.44-.09-3.8 3.89-1.59-5.2-4.88-2.41 4.46-3.19.78-5.38z"/>
  </g>

</svg>
